<svg width="423" height="332" viewBox="0 0 423 332" fill="none" xmlns="http://www.w3.org/2000/svg">
<path d="M11.5891 20.7383C11.5891 21.4451 11.0001 22.3876 10.6466 22.9767C10.1754 23.6835 9.35072 24.3904 8.87949 25.0972C8.76168 25.3329 11.0001 27.9247 11.3535 27.8069C12.4138 27.689 13.1206 26.9822 13.4741 26.0397C13.9453 24.9794 13.8275 24.1548 13.7097 22.9767C13.7097 22.5054 13.0028 22.0342 12.7672 21.6808C12.5316 21.6808 11.5891 20.8561 11.5891 20.7383Z" fill="#407BFF" fill-opacity="0.45"/>
<path d="M11.1157 63.6211C10.4088 62.0896 8.64167 61.3827 7.11015 60.7937C5.57862 60.2046 3.69367 59.6156 2.16215 60.4402C1.69091 60.6759 -0.311853 63.9745 0.0415751 64.4458C0.866242 65.3882 3.34024 65.3882 4.51834 65.7417C5.93205 66.2129 7.58138 67.391 9.11291 67.2732C9.58415 67.2732 11.3513 63.9745 11.1157 63.6211Z" fill="#407BFF" fill-opacity="0.45"/>
<path d="M34.4414 0.00389274C33.1455 0.357321 32.0852 1.65323 31.2606 2.71351C30.3181 3.7738 29.3756 5.0697 29.2578 6.48342C29.2578 6.95465 31.614 9.66427 31.9674 9.42865C33.0277 8.7218 33.7346 7.19027 34.4414 6.2478C35.2661 5.18751 36.562 4.12723 37.0332 2.94913C37.1511 2.47789 34.7949 -0.113917 34.4414 0.00389274Z" fill="#407BFF" fill-opacity="0.45"/>
<path d="M163.09 55.9629C161.794 56.3163 160.734 57.6122 159.909 58.6725C158.967 59.7328 158.024 61.0287 157.906 62.4424C157.906 62.9136 160.262 65.6233 160.616 65.3876C161.676 64.6808 162.383 63.1493 163.09 62.2068C163.915 61.1465 165.21 60.0862 165.682 58.9081C165.799 58.4369 163.561 55.8451 163.09 55.9629Z" fill="#407BFF" fill-opacity="0.45"/>
<path d="M60.9492 100.85C59.6533 101.203 58.5931 102.499 57.7684 103.559C56.8259 104.62 55.8834 105.915 55.7656 107.329C55.7656 107.8 58.1218 110.51 58.4752 110.274C59.5355 109.568 60.2424 108.036 60.9492 107.094C61.7739 106.033 63.0698 104.973 63.5411 103.795C63.6589 103.324 61.3027 100.732 60.9492 100.85Z" fill="#407BFF" fill-opacity="0.45"/>
<path d="M156.966 88.8326C156.495 89.3039 156.377 89.8929 156.141 90.4819C155.906 91.1888 155.788 91.7778 155.906 92.4847C156.023 93.0738 156.848 93.7806 157.319 94.2518C157.437 94.3697 158.38 95.5478 158.615 95.4299C159.086 95.1943 159.086 94.0162 159.204 93.4272C159.322 92.6025 159.322 91.8957 159.204 91.1888C159.204 90.9532 157.201 88.7148 156.966 88.8326Z" fill="#407BFF" fill-opacity="0.45"/>
<g opacity="0.2">
<path d="M156.966 88.8326C156.495 89.3039 156.377 89.8929 156.141 90.4819C155.906 91.1888 155.788 91.7778 155.906 92.4847C156.023 93.0738 156.848 93.7806 157.319 94.2518C157.437 94.3697 158.38 95.5478 158.615 95.4299C159.086 95.1943 159.086 94.0162 159.204 93.4272C159.322 92.6025 159.322 91.8957 159.204 91.1888C159.204 90.9532 157.201 88.7148 156.966 88.8326Z" fill="black"/>
</g>
<path d="M408.019 23.212C406.016 21.9161 403.307 20.738 400.951 20.8558C400.361 20.8558 398.594 23.5654 398.477 23.4476C399.655 23.9188 400.951 23.9188 402.129 24.2723C403.307 24.6257 404.485 25.0969 405.663 25.686C406.016 26.0394 408.019 23.212 408.019 23.212Z" fill="#407BFF" fill-opacity="0.45"/>
<path d="M198.318 151.508C196.904 153.393 195.373 155.985 195.491 158.341C195.491 158.93 197.965 160.933 197.965 161.05C198.436 159.99 198.672 158.694 199.025 157.516C199.496 156.338 200.085 155.16 200.792 154.1C200.91 153.746 198.318 151.508 198.318 151.508Z" fill="#407BFF" fill-opacity="0.45"/>
<path d="M99.352 76.5798C97.1136 75.9908 94.1683 75.6373 91.93 76.5798C91.3409 76.8154 90.5162 79.8785 90.3984 79.8785C91.5765 79.9963 92.8724 79.5251 94.0505 79.5251C95.3464 79.5251 96.6423 79.6429 97.8204 79.8785C98.2917 79.8785 99.352 76.5798 99.352 76.5798Z" fill="#407BFF" fill-opacity="0.45"/>
<path d="M184.417 84.4745C182.768 82.8251 180.529 80.9402 178.055 80.5868C177.466 80.469 175.11 82.5895 174.992 82.5895C175.935 83.2964 177.231 83.6498 178.291 84.2389C179.351 84.8279 180.411 85.6526 181.354 86.4772C181.825 86.8307 184.417 84.4745 184.417 84.4745Z" fill="#407BFF" fill-opacity="0.45"/>
<path d="M38.802 59.8516C38.5663 59.8516 37.9773 60.4406 38.5663 60.0872C38.6841 59.8516 38.802 59.8516 38.802 59.8516Z" fill="#407BFF" fill-opacity="0.45"/>
<path d="M34.2097 69.748C34.6809 69.2768 35.6234 68.4521 35.7412 67.8631C36.2125 66.3315 36.4481 64.6822 37.0371 63.1507C37.1549 62.7972 37.3906 62.326 37.5084 61.9726C37.8618 60.9123 38.333 59.9698 38.8043 59.0273C37.155 60.6767 35.6234 62.5616 34.4453 64.5644C33.5029 66.2137 32.0891 69.0412 32.6782 71.0439C32.6782 71.1617 34.0919 69.748 34.2097 69.748Z" fill="#407BFF" fill-opacity="0.45"/>
<path opacity="0.2" d="M34.2097 69.748C34.6809 69.2768 35.6234 68.4521 35.7412 67.8631C36.2125 66.3315 36.4481 64.6822 37.0371 63.1507C37.1549 62.7972 37.3906 62.326 37.5084 61.9726C37.8618 60.9123 38.333 59.9698 38.8043 59.0273C37.155 60.6767 35.6234 62.5616 34.4453 64.5644C33.5029 66.2137 32.0891 69.0412 32.6782 71.0439C32.6782 71.1617 34.0919 69.748 34.2097 69.748Z" fill="black"/>
<path d="M38.0962 60.7938C38.0962 60.7938 38.3319 60.3225 38.5675 59.9691C37.9784 60.4403 38.5675 59.7335 38.8031 59.7335C38.8031 59.7335 38.6853 59.8513 38.5675 59.9691C38.6853 59.9691 38.8031 59.8513 38.9209 59.7335C41.5127 57.7307 44.6936 56.6704 47.8744 56.317C48.4635 56.1992 49.1703 55.1389 49.6416 54.7855C49.7594 54.5499 50.9375 52.9005 51.0553 52.9005C46.4607 52.7827 42.4552 55.2567 39.2743 58.5554C39.1565 58.6732 39.0387 58.791 38.9209 58.9088C38.3319 59.8513 37.9784 60.7938 37.625 61.854C37.7428 61.6184 37.8606 61.1472 38.0962 60.7938Z" fill="#407BFF" fill-opacity="0.45"/>
<path d="M407.546 39.823C408.371 40.7655 409.195 41.7079 410.02 42.6504C410.845 43.5929 411.552 44.6532 412.258 45.7135C412.965 46.7737 413.672 47.834 414.261 48.8943C414.85 49.9546 415.557 51.1327 416.146 52.193C415.322 51.4861 414.615 50.7793 413.79 50.0724C413.437 49.719 412.965 49.3656 412.612 49.1299C412.258 48.7765 411.787 48.5409 411.316 48.1875C410.609 47.1272 409.902 46.1847 409.195 45.2422C408.489 44.2998 407.664 43.3573 406.957 42.4148C406.132 41.4723 405.308 40.6477 404.483 39.823C403.658 38.9983 402.716 38.1737 401.773 37.4668C402.716 37.7024 403.776 38.0558 404.719 38.5271L405.426 38.8805L406.132 39.2339C406.604 39.3517 407.075 39.5874 407.546 39.823Z" fill="#407BFF" fill-opacity="0.45"/>
<g opacity="0.2">
<path d="M407.546 39.823C408.371 40.7655 409.195 41.7079 410.02 42.6504C410.845 43.5929 411.552 44.6532 412.258 45.7135C412.965 46.7737 413.672 47.834 414.261 48.8943C414.85 49.9546 415.557 51.1327 416.146 52.193C415.322 51.4861 414.615 50.7793 413.79 50.0724C413.437 49.719 412.965 49.3656 412.612 49.1299C412.258 48.7765 411.787 48.5409 411.316 48.1875C410.609 47.1272 409.902 46.1847 409.195 45.2422C408.489 44.2998 407.664 43.3573 406.957 42.4148C406.132 41.4723 405.308 40.6477 404.483 39.823C403.658 38.9983 402.716 38.1737 401.773 37.4668C402.716 37.7024 403.776 38.0558 404.719 38.5271L405.426 38.8805L406.132 39.2339C406.604 39.3517 407.075 39.5874 407.546 39.823Z" fill="black"/>
</g>
<path d="M244.379 67.3906C244.497 68.0975 244.261 69.1578 244.025 69.8646C243.672 70.6893 243.201 71.514 242.847 72.3386C242.729 72.6921 245.675 74.4592 245.91 74.3414C246.853 73.988 247.324 73.0455 247.442 72.103C247.677 70.9249 247.324 70.1002 246.853 69.04C246.735 68.6865 245.91 68.3331 245.557 68.0975C245.557 68.0975 244.379 67.5084 244.379 67.3906Z" fill="#407BFF" fill-opacity="0.45"/>
<path d="M258.518 112.629C257.458 111.333 255.573 111.097 253.923 110.979C252.274 110.861 250.271 110.861 248.975 111.922C248.622 112.275 247.562 116.045 248.033 116.281C249.093 116.988 251.449 116.281 252.745 116.399C254.277 116.399 256.162 117.105 257.575 116.634C258.047 116.634 258.871 112.982 258.518 112.629Z" fill="#407BFF" fill-opacity="0.45"/>
<path d="M281.016 55.1381C279.838 55.845 279.131 57.3765 278.66 58.5546C278.071 59.8505 277.482 61.2642 277.717 62.6779C277.835 63.1492 280.898 65.0341 281.134 64.7985C281.958 63.856 282.194 62.2067 282.665 61.0286C283.136 59.8505 284.197 58.4368 284.315 57.1409C284.197 56.9053 281.252 55.0203 281.016 55.1381Z" fill="#407BFF" fill-opacity="0.45"/>
<path d="M400.594 72.6928C399.416 73.3997 398.709 74.9312 398.238 76.1093C397.649 77.4052 397.06 78.8189 397.295 80.2326C397.413 80.7038 400.476 82.5888 400.712 82.3532C401.537 81.4107 401.772 79.7614 402.243 78.5833C402.715 77.4052 403.775 75.9915 403.893 74.6956C403.893 74.4599 400.83 72.575 400.594 72.6928Z" fill="#407BFF" fill-opacity="0.45"/>
<path d="M297.157 114.632C295.978 115.338 295.272 116.87 294.8 118.048C294.211 119.344 293.622 120.758 293.858 122.171C293.976 122.643 297.039 124.528 297.274 124.292C298.099 123.35 298.335 121.7 298.806 120.522C299.277 119.344 300.337 117.93 300.455 116.634C300.455 116.281 297.51 114.396 297.157 114.632Z" fill="#407BFF" fill-opacity="0.45"/>
<path d="M369.963 91.6597C369.609 92.2487 369.609 92.8377 369.609 93.5446C369.609 94.2515 369.609 94.8405 369.963 95.5474C370.198 96.0186 371.259 96.6076 371.73 96.8433C371.966 96.9611 373.144 97.7857 373.261 97.6679C373.733 97.3145 373.379 96.1364 373.261 95.6652C373.144 94.8405 373.026 94.2515 372.672 93.4268C372.555 93.0734 370.081 91.424 369.963 91.6597Z" fill="#407BFF" fill-opacity="0.45"/>
<g opacity="0.2">
<path d="M369.963 91.6597C369.609 92.2487 369.609 92.8377 369.609 93.5446C369.609 94.2515 369.609 94.8405 369.963 95.5474C370.198 96.0186 371.259 96.6076 371.73 96.8433C371.966 96.9611 373.144 97.7857 373.261 97.6679C373.733 97.3145 373.379 96.1364 373.261 95.6652C373.144 94.8405 373.026 94.2515 372.672 93.4268C372.555 93.0734 370.081 91.424 369.963 91.6597Z" fill="black"/>
</g>
<path d="M348.166 58.7896C347.812 59.3787 347.813 59.9677 347.813 60.6746C347.813 61.3815 347.812 61.9705 348.166 62.6774C348.402 63.1486 349.462 63.7376 349.933 63.9733C350.169 64.0911 351.347 64.9157 351.465 64.7979C351.936 64.4445 351.582 63.2664 351.465 62.7952C351.347 61.9705 351.229 61.3815 350.876 60.5568C350.758 60.2034 348.284 58.6718 348.166 58.7896Z" fill="#407BFF" fill-opacity="0.45"/>
<g opacity="0.2">
<path d="M348.166 58.7896C347.812 59.3787 347.813 59.9677 347.813 60.6746C347.813 61.3815 347.812 61.9705 348.166 62.6774C348.402 63.1486 349.462 63.7376 349.933 63.9733C350.169 64.0911 351.347 64.9157 351.465 64.7979C351.936 64.4445 351.582 63.2664 351.465 62.7952C351.347 61.9705 351.229 61.3815 350.876 60.5568C350.758 60.2034 348.284 58.6718 348.166 58.7896Z" fill="black"/>
</g>
<path d="M384.804 40.1758C383.979 42.4142 383.155 45.2416 383.862 47.5978C383.979 48.1868 386.925 49.4827 386.925 49.6005C387.16 48.4224 386.925 47.1265 387.042 45.8306C387.16 44.5347 387.396 43.3566 387.867 42.0607C387.867 41.7073 384.804 40.2936 384.804 40.1758Z" fill="#407BFF" fill-opacity="0.45"/>
<path d="M351.234 75.9902C350.409 78.2286 349.584 81.056 350.291 83.4122C350.409 84.0013 353.354 85.2972 353.354 85.415C353.59 84.2369 353.354 82.941 353.472 81.6451C353.59 80.3492 353.826 79.1711 354.297 77.8752C354.415 77.4039 351.234 75.9902 351.234 75.9902Z" fill="#407BFF" fill-opacity="0.45"/>
<path d="M321.312 61.6172C320.487 63.8556 319.663 66.683 320.369 69.0392C320.487 69.6282 323.432 70.9241 323.432 71.0419C323.668 69.8639 323.432 68.5679 323.55 67.272C323.668 65.9761 323.904 64.798 324.375 63.5021C324.375 63.0309 321.194 61.6172 321.312 61.6172Z" fill="#407BFF" fill-opacity="0.45"/>
<path d="M408.956 101.084C406.6 101.202 403.654 101.555 401.769 103.087C401.298 103.44 401.298 106.621 401.062 106.621C402.241 106.385 403.419 105.679 404.479 105.325C405.657 104.972 406.953 104.736 408.249 104.618C408.838 104.5 408.956 101.084 408.956 101.084Z" fill="#407BFF" fill-opacity="0.45"/>
<path d="M371.848 124.174C369.845 122.996 367.136 121.818 364.662 122.054C364.072 122.172 362.305 124.763 362.188 124.763C363.366 125.117 364.662 125.117 365.84 125.47C367.136 125.824 368.196 126.295 369.374 126.766C369.963 127.12 371.848 124.174 371.848 124.174Z" fill="#407BFF" fill-opacity="0.45"/>
<path d="M291.031 83.7652C291.267 83.883 291.856 83.1762 291.267 83.5296C291.149 83.7652 291.031 83.7652 291.031 83.7652Z" fill="#407BFF" fill-opacity="0.45"/>
<path d="M296.57 74.3402C295.98 74.8114 295.038 75.4005 294.802 76.1073C294.213 77.6389 293.86 79.1704 293.035 80.5841C292.8 80.9375 292.682 81.291 292.446 81.6444C291.975 82.5869 291.504 83.5293 290.797 84.4718C292.564 82.9403 294.331 81.291 295.745 79.406C296.805 77.8745 298.572 75.1649 298.219 73.1621C298.101 73.1621 296.57 74.3402 296.57 74.3402Z" fill="#407BFF" fill-opacity="0.45"/>
<path opacity="0.2" d="M296.57 74.3402C295.98 74.8114 295.038 75.4005 294.802 76.1073C294.213 77.6389 293.86 79.1704 293.035 80.5841C292.8 80.9375 292.682 81.291 292.446 81.6444C291.975 82.5869 291.504 83.5293 290.797 84.4718C292.564 82.9403 294.331 81.291 295.745 79.406C296.805 77.8745 298.572 75.1649 298.219 73.1621C298.101 73.1621 296.57 74.3402 296.57 74.3402Z" fill="black"/>
<path d="M291.736 82.822C291.736 82.822 291.383 83.2932 291.147 83.5289C291.854 83.1754 291.147 83.7645 290.912 83.7645C290.912 83.7645 291.029 83.6467 291.147 83.5289C291.029 83.5289 290.912 83.6467 290.794 83.7645C287.966 85.5316 284.785 86.2385 281.487 86.2385C280.898 86.2385 280.073 87.2988 279.602 87.6522C279.366 87.77 278.07 89.3015 278.07 89.3015C282.665 89.7728 286.906 87.77 290.322 84.9426C290.44 84.8248 290.558 84.707 290.794 84.5891C291.383 83.6467 291.972 82.7042 292.443 81.7617C292.207 82.1151 291.972 82.4686 291.736 82.822Z" fill="#407BFF" fill-opacity="0.45"/>
<path d="M30.2015 199.102C28.9056 198.867 27.7275 198.631 26.4316 198.396C25.2535 198.042 23.9576 197.689 22.7795 197.335C21.6014 196.982 20.4233 196.511 19.2452 196.039C18.0671 195.568 16.889 195.097 15.7109 194.508C16.7712 194.626 17.8315 194.626 18.8918 194.743C19.363 194.743 19.9521 194.743 20.4233 194.743C20.8946 194.743 21.4836 194.743 21.9548 194.743C23.1329 195.097 24.311 195.45 25.4891 195.804C26.6672 196.157 27.8453 196.393 29.0234 196.628C30.2015 196.864 31.3796 197.1 32.5577 197.217C33.7358 197.335 34.9139 197.453 36.092 197.335C35.1495 197.689 34.207 198.042 33.1467 198.278L32.3221 198.513L31.4974 198.749C31.2618 198.985 30.7906 198.985 30.2015 199.102Z" fill="#407BFF" fill-opacity="0.45"/>
<g opacity="0.2">
<path d="M30.2015 199.102C28.9056 198.867 27.7275 198.631 26.4316 198.396C25.2535 198.042 23.9576 197.689 22.7795 197.335C21.6014 196.982 20.4233 196.511 19.2452 196.039C18.0671 195.568 16.889 195.097 15.7109 194.508C16.7712 194.626 17.8315 194.626 18.8918 194.743C19.363 194.743 19.9521 194.743 20.4233 194.743C20.8946 194.743 21.4836 194.743 21.9548 194.743C23.1329 195.097 24.311 195.45 25.4891 195.804C26.6672 196.157 27.8453 196.393 29.0234 196.628C30.2015 196.864 31.3796 197.1 32.5577 197.217C33.7358 197.335 34.9139 197.453 36.092 197.335C35.1495 197.689 34.207 198.042 33.1467 198.278L32.3221 198.513L31.4974 198.749C31.2618 198.985 30.7906 198.985 30.2015 199.102Z" fill="black"/>
</g>
<path d="M220.111 171.536C219.993 170.829 220.111 169.768 220.347 169.062C220.582 168.119 221.054 167.412 221.289 166.47C221.407 166.116 218.344 164.467 218.108 164.703C217.166 165.174 216.695 165.999 216.695 167.059C216.577 168.237 216.93 169.062 217.402 170.004C217.637 170.357 218.344 170.711 218.697 170.947C218.933 170.947 220.111 171.536 220.111 171.536Z" fill="#407BFF" fill-opacity="0.45"/>
<path d="M212.211 128.063C212.093 129.712 213.272 131.244 214.332 132.422C215.392 133.6 216.806 135.014 218.573 135.132C219.162 135.132 222.461 133.129 222.343 132.658C222.107 131.48 219.869 130.301 219.044 129.359C217.984 128.299 217.159 126.414 215.746 125.825C215.274 125.471 212.211 127.592 212.211 128.063Z" fill="#407BFF" fill-opacity="0.45"/>
<path d="M220.461 101.438C221.639 102.734 223.524 102.734 225.055 102.734C226.704 102.734 228.707 102.734 229.885 101.438C230.239 101.084 231.063 97.3144 230.592 96.9609C229.532 96.2541 227.176 97.0787 225.88 97.1965C224.348 97.1965 222.463 96.6075 221.05 97.1965C220.696 97.4322 220.107 101.084 220.461 101.438Z" fill="#407BFF" fill-opacity="0.45"/>
<path d="M194.781 69.5119C195.959 70.8078 197.844 70.8078 199.375 70.8078C201.025 70.8078 203.028 70.8078 204.206 69.5119C204.559 69.1585 205.384 65.3886 204.912 65.0351C203.852 64.3283 201.496 65.153 200.2 65.2708C198.669 65.2708 196.784 64.6817 195.37 65.2708C195.016 65.5064 194.427 69.1585 194.781 69.5119Z" fill="#407BFF" fill-opacity="0.45"/>
<path d="M144.355 180.606C145.533 181.313 147.182 181.195 148.478 180.959C149.892 180.842 151.424 180.724 152.602 179.781C152.955 179.546 153.191 175.894 152.837 175.776C151.541 175.54 150.01 176.129 148.714 176.247C147.418 176.365 145.769 176.129 144.473 176.718C144.237 176.954 144.119 180.37 144.355 180.606Z" fill="#407BFF" fill-opacity="0.45"/>
<path d="M162.26 216.067C163.438 215.36 164.027 213.711 164.381 212.533C164.852 211.237 165.441 209.706 165.088 208.292C164.97 207.821 161.789 206.053 161.553 206.289C160.729 207.349 160.611 208.881 160.257 210.177C159.786 211.473 158.962 212.769 158.844 214.182C158.844 214.654 161.907 216.303 162.26 216.067Z" fill="#407BFF" fill-opacity="0.45"/>
<path d="M43.7446 173.774C44.9227 173.067 45.5117 171.418 45.8652 170.24C46.3364 168.944 46.9255 167.413 46.572 165.999C46.4542 165.528 43.2734 163.761 43.0377 163.996C42.2131 165.056 42.0953 166.588 41.7418 167.884C41.2706 169.18 40.4459 170.476 40.3281 171.889C40.3281 172.361 43.3912 174.01 43.7446 173.774Z" fill="#407BFF" fill-opacity="0.45"/>
<path d="M28.3149 107.919C29.493 107.212 30.0821 105.563 30.4355 104.385C30.9067 103.089 31.4958 101.557 31.1423 100.143C31.0245 99.6722 27.8437 97.905 27.6081 98.1407C26.7834 99.2009 26.6656 100.732 26.3122 102.028C25.8409 103.324 25.0162 104.62 24.8984 106.034C25.0162 106.387 28.0793 108.037 28.3149 107.919Z" fill="#407BFF" fill-opacity="0.45"/>
<path d="M228.94 68.452C230.118 67.7452 230.707 66.0959 231.06 64.9178C231.532 63.6219 232.121 62.0903 231.767 60.6766C231.65 60.2054 228.469 58.4382 228.233 58.6739C227.408 59.7341 227.291 61.2657 226.937 62.5616C226.466 63.8575 225.641 65.1534 225.523 66.5671C225.523 66.9205 228.586 68.6877 228.94 68.452Z" fill="#407BFF" fill-opacity="0.45"/>
<path d="M87.2174 156.926C87.5708 156.337 87.453 155.748 87.453 155.041C87.453 154.334 87.3352 153.745 86.9818 153.038C86.6284 152.567 85.5681 152.096 85.0968 151.86C84.8612 151.742 83.6831 150.918 83.4475 151.153C82.9763 151.507 83.4475 152.685 83.5653 153.156C83.6831 153.981 83.9187 154.57 84.2722 155.277C84.6256 155.63 87.0996 157.162 87.2174 156.926Z" fill="#407BFF" fill-opacity="0.45"/>
<g opacity="0.2">
<path d="M87.2174 156.926C87.5708 156.337 87.453 155.748 87.453 155.041C87.453 154.334 87.3352 153.745 86.9818 153.038C86.6284 152.567 85.5681 152.096 85.0968 151.86C84.8612 151.742 83.6831 150.918 83.4475 151.153C82.9763 151.507 83.4475 152.685 83.5653 153.156C83.6831 153.981 83.9187 154.57 84.2722 155.277C84.6256 155.63 87.0996 157.162 87.2174 156.926Z" fill="black"/>
</g>
<path d="M167.561 155.985C167.915 155.396 167.797 154.807 167.797 154.1C167.797 153.393 167.679 152.804 167.326 152.097C166.972 151.626 165.912 151.155 165.441 150.919C165.205 150.801 164.027 149.976 163.791 150.212C163.32 150.565 163.791 151.744 163.909 152.215C164.027 153.039 164.262 153.629 164.616 154.335C164.852 154.689 167.443 156.22 167.561 155.985Z" fill="#407BFF" fill-opacity="0.45"/>
<g opacity="0.2">
<path d="M167.561 155.985C167.915 155.396 167.797 154.807 167.797 154.1C167.797 153.393 167.679 152.804 167.326 152.097C166.972 151.626 165.912 151.155 165.441 150.919C165.205 150.801 164.027 149.976 163.791 150.212C163.32 150.565 163.791 151.744 163.909 152.215C164.027 153.039 164.262 153.629 164.616 154.335C164.852 154.689 167.443 156.22 167.561 155.985Z" fill="black"/>
</g>
<path d="M112.075 189.443C112.781 187.205 113.37 184.259 112.546 182.021C112.31 181.432 109.365 180.372 109.365 180.254C109.247 181.432 109.483 182.728 109.483 184.024C109.483 185.32 109.247 186.498 108.894 187.794C108.776 188.147 112.075 189.443 112.075 189.443Z" fill="#407BFF" fill-opacity="0.45"/>
<path d="M117.965 155.748C118.672 153.509 119.261 150.564 118.436 148.326C118.201 147.737 115.256 146.676 115.256 146.559C115.138 147.737 115.373 149.033 115.373 150.328C115.373 151.624 115.138 152.803 114.784 154.098C114.667 154.452 117.965 155.748 117.965 155.748Z" fill="#407BFF" fill-opacity="0.45"/>
<path d="M72.0234 245.52C74.3796 245.284 77.3249 244.813 79.092 243.164C79.5632 242.81 79.4454 239.63 79.5632 239.512C78.3852 239.865 77.3249 240.572 76.1468 241.043C74.9687 241.514 73.6728 241.75 72.4947 241.986C72.0234 242.104 72.0234 245.52 72.0234 245.52Z" fill="#407BFF" fill-opacity="0.45"/>
<path d="M120.438 219.602C122.558 220.662 125.268 221.723 127.742 221.251C128.331 221.134 129.862 218.424 129.98 218.424C128.802 218.071 127.506 218.188 126.328 217.953C125.032 217.717 123.854 217.364 122.676 216.775C122.205 216.539 120.438 219.602 120.438 219.602Z" fill="#407BFF" fill-opacity="0.45"/>
<path d="M14.1797 156.338C14.1797 156.574 14.8865 157.045 14.4153 156.456C14.2975 156.338 14.1797 156.338 14.1797 156.338Z" fill="#407BFF" fill-opacity="0.45"/>
<path d="M24.5435 159.637C23.9544 159.165 23.1298 158.458 22.4229 158.341C20.7736 158.105 19.242 158.105 17.5927 157.634C17.2393 157.516 16.768 157.398 16.4146 157.28C15.3543 157.045 14.294 156.691 13.3516 156.338C15.2365 157.752 17.2393 159.048 19.4777 159.99C21.2448 160.697 24.19 161.757 26.075 160.932C26.075 160.932 24.6613 159.637 24.5435 159.637Z" fill="#407BFF" fill-opacity="0.45"/>
<path opacity="0.2" d="M24.5435 159.637C23.9544 159.165 23.1298 158.458 22.4229 158.341C20.7736 158.105 19.242 158.105 17.5927 157.634C17.2393 157.516 16.768 157.398 16.4146 157.28C15.3543 157.045 14.294 156.691 13.3516 156.338C15.2365 157.752 17.2393 159.048 19.4777 159.99C21.2448 160.697 24.19 161.757 26.075 160.932C26.075 160.932 24.6613 159.637 24.5435 159.637Z" fill="black"/>
<path d="M15.2366 156.808C15.1188 156.808 14.6476 156.573 14.412 156.455C14.8832 157.044 14.1764 156.573 14.1764 156.337C14.1764 156.337 14.2942 156.455 14.412 156.455C14.2942 156.337 14.2942 156.337 14.1764 156.219C11.8202 153.863 10.4064 150.918 9.69959 147.737C9.58178 147.148 8.40369 146.559 7.93245 146.205C7.69683 146.088 5.92969 145.145 5.92969 145.027C6.40093 149.622 9.34616 153.274 12.9983 155.984C13.1161 156.101 13.3517 156.219 13.4695 156.337C14.5298 156.808 15.4723 157.044 16.5325 157.28C16.0613 157.162 15.5901 156.926 15.2366 156.808Z" fill="#407BFF" fill-opacity="0.45"/>
<path d="M145.182 120.759C144.947 120.642 144.24 121.113 144.947 120.877C145.065 120.759 145.182 120.759 145.182 120.759Z" fill="#407BFF" fill-opacity="0.45"/>
<path d="M137.642 128.653C138.231 128.299 139.291 127.946 139.763 127.357C140.705 126.061 141.412 124.529 142.472 123.351C142.708 122.998 143.061 122.762 143.297 122.409C144.004 121.584 144.711 120.76 145.535 120.053C143.415 121.113 141.412 122.409 139.645 123.94C138.231 125.236 135.993 127.475 135.875 129.477L137.642 128.653Z" fill="#407BFF" fill-opacity="0.45"/>
<path opacity="0.2" d="M137.642 128.653C138.231 128.299 139.291 127.946 139.763 127.357C140.705 126.061 141.412 124.529 142.472 123.351C142.708 122.998 143.061 122.762 143.297 122.409C144.004 121.584 144.711 120.76 145.535 120.053C143.415 121.113 141.412 122.409 139.645 123.94C138.231 125.236 135.993 127.475 135.875 129.477L137.642 128.653Z" fill="black"/>
<path d="M144.239 121.467C144.239 121.467 144.711 121.113 144.946 120.878C144.239 121.113 144.946 120.642 145.182 120.76C145.182 120.76 145.064 120.76 144.946 120.878C145.064 120.878 145.182 120.76 145.3 120.76C148.363 119.699 151.779 119.699 154.96 120.406C155.549 120.524 156.609 119.699 157.081 119.464C157.316 119.346 158.848 118.168 158.966 118.168C154.607 116.636 150.012 117.697 146.006 119.817C145.889 119.935 145.653 119.935 145.535 120.053C144.711 120.76 144.004 121.584 143.297 122.409C143.65 122.056 143.886 121.82 144.239 121.467Z" fill="#407BFF" fill-opacity="0.45"/>
<path d="M389.993 123.94C390.936 124.882 391.76 125.824 392.585 126.767C393.41 127.709 394.234 128.77 394.941 129.712C395.648 130.773 396.355 131.715 397.062 132.775C397.769 133.836 398.358 134.896 398.947 136.074C398.122 135.367 397.297 134.66 396.473 134.071C396.002 133.718 395.648 133.482 395.177 133.129C394.706 132.775 394.352 132.54 393.881 132.186C393.174 131.244 392.467 130.183 391.643 129.241C390.936 128.298 390.111 127.356 389.286 126.531C388.462 125.589 387.637 124.764 386.695 123.94C385.752 123.115 384.81 122.408 383.867 121.701C384.81 121.937 385.87 122.29 386.812 122.644L387.519 122.879L388.226 123.233C389.051 123.468 389.522 123.704 389.993 123.94Z" fill="#407BFF" fill-opacity="0.45"/>
<g opacity="0.2">
<path d="M389.993 123.94C390.936 124.882 391.76 125.824 392.585 126.767C393.41 127.709 394.234 128.77 394.941 129.712C395.648 130.773 396.355 131.715 397.062 132.775C397.769 133.836 398.358 134.896 398.947 136.074C398.122 135.367 397.297 134.66 396.473 134.071C396.002 133.718 395.648 133.482 395.177 133.129C394.706 132.775 394.352 132.54 393.881 132.186C393.174 131.244 392.467 130.183 391.643 129.241C390.936 128.298 390.111 127.356 389.286 126.531C388.462 125.589 387.637 124.764 386.695 123.94C385.752 123.115 384.81 122.408 383.867 121.701C384.81 121.937 385.87 122.29 386.812 122.644L387.519 122.879L388.226 123.233C389.051 123.468 389.522 123.704 389.993 123.94Z" fill="black"/>
</g>
<path d="M268.766 142.436C268.531 143.142 267.706 143.849 267.117 144.32C266.41 144.91 265.468 145.263 264.761 145.852C264.525 146.088 265.939 149.151 266.292 149.268C267.353 149.386 268.177 149.033 268.884 148.208C269.709 147.266 269.827 146.441 270.062 145.381C270.18 144.91 269.709 144.32 269.473 143.849C269.473 143.614 268.766 142.436 268.766 142.436Z" fill="#407BFF" fill-opacity="0.45"/>
<path d="M339.688 150.799C339.453 149.149 337.921 147.971 336.743 147.029C335.447 146.086 333.798 144.908 332.031 145.261C331.442 145.379 328.614 147.971 328.85 148.442C329.321 149.62 331.677 150.327 332.738 151.034C334.033 151.859 335.212 153.508 336.625 153.862C337.214 153.862 339.688 151.27 339.688 150.799Z" fill="#407BFF" fill-opacity="0.45"/>
<path d="M360.895 111.333C359.599 111.215 358.185 112.276 357.125 112.983C355.947 113.807 354.651 114.632 354.062 115.928C353.826 116.281 355.476 119.58 355.711 119.58C357.007 119.226 357.95 117.931 359.01 117.224C360.07 116.517 361.602 115.81 362.427 114.868C362.78 114.632 361.248 111.451 360.895 111.333Z" fill="#407BFF" fill-opacity="0.45"/>
<path d="M412.257 170.238C411.079 170.945 410.49 172.595 410.019 173.773C409.548 175.069 408.959 176.6 409.194 178.014C409.312 178.485 412.493 180.252 412.611 180.017C413.435 178.956 413.553 177.425 414.024 176.129C414.496 174.833 415.438 173.537 415.556 172.241C415.556 171.77 412.611 170.003 412.257 170.238Z" fill="#407BFF" fill-opacity="0.45"/>
<path d="M217.05 233.031C216.932 231.735 215.872 230.439 214.929 229.379C213.987 228.319 212.927 227.141 211.631 226.669C211.159 226.552 208.096 228.436 208.214 228.79C208.685 229.968 210.099 230.911 210.924 231.853C211.749 232.913 212.573 234.327 213.751 235.034C214.105 235.269 217.05 233.502 217.05 233.031Z" fill="#407BFF" fill-opacity="0.45"/>
<path d="M375.269 223.959C374.68 224.195 374.327 224.784 373.973 225.373C373.62 225.962 373.266 226.551 373.148 227.258C373.148 227.847 373.737 228.789 373.973 229.26C374.091 229.496 374.562 230.792 374.916 230.792C375.505 230.674 375.74 229.614 375.976 229.025C376.329 228.318 376.565 227.611 376.565 226.904C376.683 226.669 375.505 223.959 375.269 223.959Z" fill="#407BFF" fill-opacity="0.45"/>
<g opacity="0.2">
<path d="M375.269 223.959C374.68 224.195 374.327 224.784 373.973 225.373C373.62 225.962 373.266 226.551 373.148 227.258C373.148 227.847 373.737 228.789 373.973 229.26C374.091 229.496 374.562 230.792 374.916 230.792C375.505 230.674 375.74 229.614 375.976 229.025C376.329 228.318 376.565 227.611 376.565 226.904C376.683 226.669 375.505 223.959 375.269 223.959Z" fill="black"/>
</g>
<path d="M292.8 206.76C292.211 206.995 291.858 207.584 291.504 208.173C291.151 208.762 290.797 209.351 290.68 210.058C290.68 210.647 291.269 211.59 291.504 212.061C291.622 212.297 292.093 213.593 292.447 213.593C293.036 213.475 293.272 212.414 293.507 211.825C293.861 211.119 294.096 210.412 294.096 209.705C294.214 209.351 292.918 206.642 292.8 206.76Z" fill="#407BFF" fill-opacity="0.45"/>
<g opacity="0.2">
<path d="M292.8 206.76C292.211 206.995 291.858 207.584 291.504 208.173C291.151 208.762 290.797 209.351 290.68 210.058C290.68 210.647 291.269 211.59 291.504 212.061C291.622 212.297 292.093 213.593 292.447 213.593C293.036 213.475 293.272 212.414 293.507 211.825C293.861 211.119 294.096 210.412 294.096 209.705C294.214 209.351 292.918 206.642 292.8 206.76Z" fill="black"/>
</g>
<path d="M302.464 164.701C301.875 164.937 301.522 165.526 301.168 166.115C300.815 166.704 300.462 167.293 300.344 168C300.344 168.589 300.933 169.531 301.168 170.002C301.286 170.238 301.757 171.534 302.111 171.534C302.7 171.416 302.936 170.356 303.171 169.767C303.525 169.06 303.76 168.353 303.76 167.646C303.878 167.293 302.7 164.583 302.464 164.701Z" fill="#407BFF" fill-opacity="0.45"/>
<g opacity="0.2">
<path d="M302.464 164.701C301.875 164.937 301.522 165.526 301.168 166.115C300.815 166.704 300.462 167.293 300.344 168C300.344 168.589 300.933 169.531 301.168 170.002C301.286 170.238 301.757 171.534 302.111 171.534C302.7 171.416 302.936 170.356 303.171 169.767C303.525 169.06 303.76 168.353 303.76 167.646C303.878 167.293 302.7 164.583 302.464 164.701Z" fill="black"/>
</g>
<path d="M387.288 151.271C385.403 152.685 383.165 154.688 382.576 157.044C382.458 157.633 384.225 160.225 384.107 160.343C384.932 159.4 385.403 158.222 386.228 157.28C387.053 156.219 387.877 155.395 388.82 154.57C389.173 154.217 387.288 151.271 387.288 151.271Z" fill="#407BFF" fill-opacity="0.45"/>
<path d="M390.346 196.863C388.108 196.038 385.28 195.331 382.924 196.038C382.335 196.156 381.157 199.101 381.039 199.101C382.217 199.337 383.513 199.101 384.809 199.101C386.105 199.219 387.283 199.454 388.579 199.808C388.814 200.043 390.228 196.863 390.346 196.863Z" fill="#407BFF" fill-opacity="0.45"/>
<path d="M422.035 120.052C420.033 118.873 417.323 117.578 414.849 117.813C414.26 117.931 412.493 120.523 412.375 120.523C413.553 120.994 414.849 120.994 416.027 121.23C417.205 121.583 418.383 122.054 419.561 122.643C420.033 122.879 422.035 120.052 422.035 120.052Z" fill="#407BFF" fill-opacity="0.45"/>
<path d="M361.248 159.4C360.188 157.28 358.538 154.806 356.3 153.745C355.711 153.51 352.883 154.806 352.766 154.688C353.472 155.63 354.651 156.337 355.475 157.28C356.3 158.222 357.125 159.283 357.714 160.343C358.067 160.814 361.248 159.4 361.248 159.4Z" fill="#407BFF" fill-opacity="0.45"/>
<path d="M320.844 196.156C321.079 196.038 321.197 195.213 320.844 195.92C320.844 196.038 320.844 196.156 320.844 196.156Z" fill="#407BFF" fill-opacity="0.45"/>
<path d="M319.904 185.199C319.786 185.906 319.315 186.967 319.433 187.673C319.786 189.205 320.375 190.736 320.611 192.386C320.729 192.739 320.729 193.21 320.729 193.682C320.964 194.742 321.082 195.802 321.082 196.863C321.671 194.624 322.142 192.268 322.142 189.794C322.142 187.909 321.907 184.728 320.493 183.314C320.493 183.314 319.904 185.199 319.904 185.199Z" fill="#407BFF" fill-opacity="0.45"/>
<path opacity="0.2" d="M319.904 185.199C319.786 185.906 319.315 186.967 319.433 187.673C319.786 189.205 320.375 190.736 320.611 192.386C320.729 192.739 320.729 193.21 320.729 193.682C320.964 194.742 321.082 195.802 321.082 196.863C321.671 194.624 322.142 192.268 322.142 189.794C322.142 187.909 321.907 184.728 320.493 183.314C320.493 183.314 319.904 185.199 319.904 185.199Z" fill="black"/>
<path d="M320.843 194.86C320.843 194.978 320.843 195.449 320.843 195.803C321.197 195.096 320.961 196.038 320.843 196.038C320.843 196.038 320.843 195.921 320.843 195.803C320.843 195.921 320.725 196.038 320.725 196.156C319.43 199.219 317.191 201.693 314.599 203.578C314.128 203.932 314.01 205.228 313.892 205.817C313.892 206.052 313.657 208.055 313.539 208.055C317.545 205.817 319.901 201.693 320.961 197.334C320.961 197.099 321.079 196.981 321.079 196.745C321.079 195.685 320.961 194.625 320.725 193.564C320.843 194.036 320.843 194.507 320.843 194.86Z" fill="#407BFF" fill-opacity="0.45"/>
<path d="M257.336 206.053C257.336 206.288 258.161 206.642 257.572 206.171C257.454 206.171 257.336 206.053 257.336 206.053Z" fill="#407BFF" fill-opacity="0.45"/>
<path d="M268.297 206.995C267.708 206.759 266.647 206.17 265.94 206.17C264.291 206.288 262.76 206.641 261.11 206.523C260.639 206.523 260.286 206.523 259.814 206.406C258.754 206.406 257.694 206.288 256.516 206.17C258.636 207.112 260.875 207.937 263.231 208.408C265.116 208.762 268.297 209.115 269.946 207.937C270.064 207.937 268.297 207.112 268.297 206.995Z" fill="#407BFF" fill-opacity="0.45"/>
<path opacity="0.2" d="M268.297 206.995C267.708 206.759 266.647 206.17 265.94 206.17C264.291 206.288 262.76 206.641 261.11 206.523C260.639 206.523 260.286 206.523 259.814 206.406C258.754 206.406 257.694 206.288 256.516 206.17C258.636 207.112 260.875 207.937 263.231 208.408C265.116 208.762 268.297 209.115 269.946 207.937C270.064 207.937 268.297 207.112 268.297 206.995Z" fill="black"/>
<path d="M258.515 206.405C258.398 206.405 257.926 206.287 257.573 206.287C258.162 206.759 257.337 206.405 257.337 206.17C257.337 206.17 257.455 206.287 257.573 206.287C257.455 206.287 257.337 206.17 257.219 206.052C254.392 204.285 252.389 201.693 250.976 198.748C250.74 198.276 249.444 197.923 248.973 197.687C248.737 197.57 246.852 197.098 246.734 196.98C248.266 201.339 251.918 204.285 256.041 206.17C256.159 206.287 256.395 206.287 256.513 206.405C257.573 206.641 258.633 206.641 259.811 206.641C259.34 206.523 258.987 206.405 258.515 206.405Z" fill="#407BFF" fill-opacity="0.45"/>
<path d="M159.568 82.6082C159.068 82.6082 156.067 86.4082 155.867 85.8082C155.767 85.4082 153.168 82.5082 151.268 80.4082C149.968 79.0082 149.667 77.0082 150.367 75.3082L151.568 72.3082C152.068 71.1082 153.068 70.2082 154.268 69.9082L157.768 71.3082L158.168 75.5082L159.568 82.6082Z" fill="#DD8C6A"/>
<path d="M160.565 85.2074L160.465 79.8074C160.465 79.8074 156.765 78.5074 154.965 80.8074C153.165 83.0074 153.665 84.4074 153.665 84.4074C153.665 84.4074 154.665 86.7074 158.065 88.6074C161.565 90.5074 160.565 85.2074 160.565 85.2074Z" fill="#407BFF"/>
<path opacity="0.2" d="M160.565 85.2074L160.465 79.8074C160.465 79.8074 156.765 78.5074 154.965 80.8074C153.165 83.0074 153.665 84.4074 153.665 84.4074C153.665 84.4074 154.665 86.7074 158.065 88.6074C161.565 90.5074 160.565 85.2074 160.565 85.2074Z" fill="black"/>
<path d="M195.071 121.909C190.471 117.909 181.671 111.109 175.771 106.509C173.071 104.409 166.971 92.809 163.771 88.109C162.871 86.809 160.471 85.209 160.471 85.209L157.171 88.109C157.171 88.109 155.871 89.809 156.471 91.509C158.771 97.909 166.171 112.709 168.771 115.209C176.271 122.709 190.471 135.009 193.371 134.709C197.771 134.409 198.571 125.009 195.071 121.909Z" fill="#407BFF"/>
<path opacity="0.2" d="M195.071 121.909C190.471 117.909 181.671 111.109 175.771 106.509C173.071 104.409 166.971 92.809 163.771 88.109C162.871 86.809 160.471 85.209 160.471 85.209L157.171 88.109C157.171 88.109 155.871 89.809 156.471 91.509C158.771 97.909 166.171 112.709 168.771 115.209C176.271 122.709 190.471 135.009 193.371 134.709C197.771 134.409 198.571 125.009 195.071 121.909Z" fill="white"/>
<path d="M241.065 330.41C241.565 329.21 242.265 328.21 243.165 327.31C243.165 327.31 246.765 321.41 244.265 311.11L249.065 307.01C250.265 306.91 251.565 307.71 252.465 308.51C253.065 309.41 253.565 309.71 254.065 310.71C255.765 313.71 259.465 320.61 259.465 320.61L258.765 321.01C257.565 318.91 256.265 317.01 254.765 315.11C253.265 313.31 253.165 316.41 253.765 319.11C254.265 321.81 252.465 325.91 247.965 328.51C242.665 331.61 240.265 332.61 241.065 330.41Z" fill="#263238"/>
<path d="M250.066 316.511C250.066 318.311 251.166 321.411 249.566 323.611C248.166 325.711 245.766 327.111 243.266 327.311C243.266 327.311 246.066 322.711 244.966 314.611C244.866 313.511 244.566 312.411 244.366 311.111C244.366 311.111 248.566 308.111 250.466 307.711L251.366 310.411C251.166 312.311 250.666 314.311 250.266 315.711C250.066 315.911 250.066 316.211 250.066 316.511Z" fill="#DD8C6A"/>
<path d="M251.264 310.511C251.064 312.411 250.564 314.411 250.164 315.811C250.064 316.011 250.064 316.211 250.064 316.511L246.164 318.111L244.964 314.611L240.664 302.111L247.464 299.311L250.364 307.711L251.264 310.511Z" fill="#DD8C6A"/>
<path opacity="0.2" d="M247.066 298.41L240.266 301.21L242.166 306.61C242.166 306.61 247.166 307.61 249.166 304.21L249.466 305.01L247.066 298.41Z" fill="black"/>
<path d="M189.368 325.609C190.468 324.909 191.568 324.409 192.868 324.109C192.868 324.109 198.968 321.109 202.468 311.009L208.868 309.809C209.968 310.409 210.768 311.409 211.168 312.609C211.168 313.709 211.168 314.809 211.068 315.909C210.868 319.409 210.168 328.309 210.168 328.309L209.368 328.209C209.468 325.809 209.468 322.309 209.268 319.909C208.968 317.609 207.268 320.209 206.268 322.709C205.268 325.209 201.568 327.709 196.268 327.509C190.068 327.409 187.568 327.009 189.368 325.609Z" fill="#263238"/>
<path d="M207.767 314.91C207.067 316.11 206.067 317.21 204.967 318.11C203.667 319.01 203.167 323.21 200.167 324.41C197.767 325.41 195.067 325.31 192.867 324.11C192.867 324.11 197.467 321.81 200.967 314.61C201.767 312.91 202.067 311.11 201.667 309.21L199.567 297.41L207.267 296.51L208.967 310.61C209.067 312.71 208.567 314.01 207.767 314.91Z" fill="#DD8C6A"/>
<path opacity="0.2" d="M198.867 291.909L200.567 302.409H201.167C203.467 303.009 206.067 302.509 207.967 301.109H207.867L206.767 291.109L198.867 291.909Z" fill="black"/>
<path d="M227.465 126.91C227.565 126.51 227.565 125.81 227.465 125.41C226.965 119.91 227.665 113.71 222.165 114.21C219.865 115.61 217.265 116.51 214.565 116.71C214.465 116.71 214.365 116.71 214.365 116.71C209.665 117.21 205.065 118.11 200.565 119.21C199.765 119.41 198.965 119.61 198.265 119.91C197.165 120.21 196.165 120.61 195.165 120.91C190.465 122.51 190.965 127.71 189.965 132.51C188.765 138.31 187.065 139.91 196.465 157.01C197.865 159.51 196.565 166.11 199.265 168.01C205.565 172.51 229.065 165.11 229.065 165.11C229.065 165.11 224.465 144.91 227.465 126.91Z" fill="#407BFF"/>
<g opacity="0.2">
<path d="M227.465 126.91C227.565 126.51 227.565 125.81 227.465 125.41C226.965 119.91 227.665 113.71 222.165 114.21C219.865 115.61 217.265 116.51 214.565 116.71C214.465 116.71 214.365 116.71 214.365 116.71C209.665 117.21 205.065 118.11 200.565 119.21C199.765 119.41 198.965 119.61 198.265 119.91C197.165 120.21 196.165 120.61 195.165 120.91C190.465 122.51 190.965 127.71 189.965 132.51C188.765 138.31 187.065 139.91 196.465 157.01C197.865 159.51 196.565 166.11 199.265 168.01C205.565 172.51 229.065 165.11 229.065 165.11C229.065 165.11 224.465 144.91 227.465 126.91Z" fill="white"/>
</g>
<path d="M199.27 168.11C199.27 168.11 196.87 206.71 194.87 236.41C193.27 260.01 197.17 300.31 197.17 300.31C197.17 300.31 203.07 302.31 209.57 298.81C209.57 298.81 212.07 261.71 210.67 239.21C219.77 206.51 232.77 175.71 223.77 163.41L199.27 168.11Z" fill="#263238"/>
<path opacity="0.3" d="M213.266 191.111L225.866 184.211C223.966 195.911 219.166 210.511 214.366 226.211C211.166 213.611 209.766 200.511 213.266 191.111Z" fill="black"/>
<path d="M205.266 167.011C205.266 167.011 212.466 199.311 217.266 228.011C219.166 248.711 240.366 305.411 240.366 305.411L244.166 304.711C245.966 304.411 247.666 303.611 249.066 302.311L250.366 301.111C250.366 301.111 244.566 260.111 238.466 244.111C239.266 210.911 240.866 173.711 228.566 162.311L205.266 167.011Z" fill="#263238"/>
<path d="M199.77 120.409C199.17 122.209 198.17 125.509 198.97 126.809C199.07 126.109 200.57 123.709 201.67 124.809C201.97 125.209 202.37 125.509 202.57 125.909C203.27 127.009 203.87 128.009 204.57 129.109C204.87 129.609 205.27 130.109 205.77 130.109C206.37 130.209 206.87 129.509 207.27 129.009C207.97 127.809 208.67 126.709 209.37 125.509C209.87 124.709 210.37 123.909 211.17 123.409C211.97 122.909 214.87 124.009 215.37 124.809C215.47 122.709 216.07 118.109 215.87 116.909C215.67 115.709 213.27 113.909 211.97 113.709C211.17 113.509 210.27 113.809 209.57 114.109C206.07 115.509 201.07 116.509 199.77 120.409Z" fill="white"/>
<path d="M210.173 107.908C210.573 111.408 211.473 115.008 213.573 116.408C213.573 116.408 215.773 119.208 208.373 124.508C207.173 125.508 205.273 126.508 204.273 125.308C201.973 122.908 201.973 120.708 202.373 119.408C202.573 118.708 203.073 118.008 203.673 117.508C205.273 116.008 204.273 114.208 202.873 108.808L206.273 106.708C207.073 105.708 208.573 105.608 209.473 106.408C209.773 106.808 210.073 107.308 210.173 107.908Z" fill="#DD8C6A"/>
<path opacity="0.2" d="M206.076 106.708C206.876 105.708 208.376 105.608 209.276 106.408C209.576 106.708 209.876 107.108 209.976 107.508C208.676 110.308 206.676 112.608 203.976 114.108C203.876 112.708 202.776 111.208 202.276 109.908C202.076 109.508 202.676 109.108 202.476 108.708L206.076 106.708Z" fill="black"/>
<path d="M206.469 83.0093C204.869 81.5093 202.369 81.2093 200.269 81.8093C198.169 82.4093 196.369 83.8093 194.769 85.4093C192.069 88.1093 189.869 91.5093 188.769 95.2093C187.669 98.9093 187.769 103.009 189.269 106.609C189.969 108.309 191.069 109.909 192.669 110.909C195.069 112.509 198.369 112.309 200.969 111.009C203.569 109.709 205.569 107.309 206.969 104.809C208.869 101.509 212.069 93.4093 209.169 87.1093C207.769 84.1093 206.469 83.0093 206.469 83.0093Z" fill="#263238"/>
<path d="M211.269 107.309C208.169 108.509 206.469 109.609 205.769 109.009C204.869 108.209 207.569 104.509 207.769 103.309C208.269 100.809 209.769 98.5094 211.969 97.2094C214.169 95.9094 217.069 95.9094 219.269 97.2094C220.569 98.0094 221.569 99.2094 221.769 100.709C221.969 102.209 220.669 103.209 219.569 104.009C217.369 105.909 214.169 106.109 211.269 107.309Z" fill="#263238"/>
<path d="M212.771 95.0094C212.571 102.109 212.571 105.109 209.171 108.909C204.071 114.609 195.571 113.009 193.671 106.009C191.971 99.7094 192.571 89.2094 199.371 86.0094C206.071 82.9094 212.971 87.9094 212.771 95.0094Z" fill="#DD8C6A"/>
<path d="M210.168 95.2087C208.768 95.9087 208.868 102.609 212.268 102.309C215.668 102.109 214.868 92.9087 210.168 95.2087Z" fill="#263238"/>
<path d="M214.469 101.509C214.169 102.809 213.369 104.009 212.269 104.809C210.769 105.809 209.469 104.609 209.469 102.909C209.469 101.309 210.269 99.0088 211.969 98.6088C213.669 98.3088 214.869 99.9088 214.469 101.509Z" fill="#DD8C6A"/>
<path d="M205.67 82.2085C195.97 83.9085 196.67 90.3085 204.97 94.4085C209.57 96.7085 215.77 101.908 211.77 110.208C210.47 112.808 226.27 103.008 221.87 97.2085C213.47 86.1085 213.07 79.8085 205.67 82.2085Z" fill="#263238"/>
<path d="M201.167 97.8086C201.167 98.4086 200.867 98.9086 200.567 98.9086C200.167 98.9086 199.867 98.5086 199.867 97.9086C199.867 97.3086 200.167 96.8086 200.467 96.8086C200.767 96.8086 201.067 97.2086 201.167 97.8086Z" fill="#263238"/>
<path d="M194.769 98.1094C194.769 98.7094 194.469 99.2094 194.169 99.2094C193.769 99.2094 193.469 98.8094 193.469 98.2094C193.469 97.6094 193.769 97.1094 194.069 97.1094C194.369 97.1094 194.669 97.6094 194.769 98.1094Z" fill="#263238"/>
<path d="M194.166 97.2088L192.766 96.9088C192.766 96.8088 193.566 97.9088 194.166 97.2088Z" fill="#263238"/>
<path d="M196.87 98.9102C196.47 100.41 195.87 101.91 195.07 103.21C195.77 103.61 196.57 103.61 197.37 103.31L196.87 98.9102Z" fill="#C13B37"/>
<path d="M203.069 95.3087C202.969 95.3087 202.969 95.3087 202.969 95.2087C202.469 94.5087 201.669 94.2087 200.869 94.2087C200.669 94.2087 200.569 94.1087 200.469 93.9087C200.469 93.7087 200.569 93.5087 200.769 93.5087C201.869 93.4087 202.869 93.9087 203.469 94.8087C203.569 94.9087 203.569 95.2087 203.369 95.3087C203.369 95.4087 203.269 95.4087 203.069 95.3087Z" fill="#263238"/>
<path d="M192.167 95.2096C192.067 95.0096 192.067 94.8096 192.267 94.7096C193.167 94.1096 194.267 94.0096 195.267 94.5096C195.467 94.6096 195.467 94.8096 195.367 95.0096C195.267 95.2096 195.067 95.2096 194.967 95.2096C194.167 94.9096 193.267 94.9096 192.567 95.4096C192.367 95.3096 192.267 95.3096 192.167 95.2096Z" fill="#263238"/>
<path d="M200.572 96.8098L199.172 96.5098C199.172 96.5098 199.972 97.5098 200.572 96.8098Z" fill="#263238"/>
<path d="M197.172 105.009C197.172 105.009 198.972 104.309 204.272 103.809C203.872 105.609 202.872 107.209 200.172 107.509C197.472 107.809 197.172 105.009 197.172 105.009Z" fill="#263238"/>
<path d="M201.269 105.908C200.269 105.908 199.269 106.308 198.469 107.108C199.069 107.408 199.669 107.608 200.169 107.508C201.169 107.508 202.169 107.108 202.969 106.408C202.469 106.008 201.869 105.808 201.269 105.908Z" fill="#FF5652"/>
<path d="M197.469 104.909C197.669 105.409 197.969 105.709 198.369 105.709C199.969 105.509 201.469 105.209 202.969 104.809C203.469 104.709 203.869 104.309 204.069 103.809C201.769 104.009 199.569 104.409 197.469 104.909Z" fill="white"/>
<path d="M257.672 76.1086L254.672 67.4086L262.572 67.3086C262.572 67.3086 262.572 72.7086 261.972 75.4086L257.672 76.1086Z" fill="#DD8C6A"/>
<path d="M257.27 62.0084L259.17 62.2084C259.97 62.3084 260.57 62.8084 260.87 63.5084L262.47 67.4084L254.57 67.5084L254.87 64.0084C255.17 62.7084 256.17 61.9084 257.27 62.0084Z" fill="#DD8C6A"/>
<path d="M256.972 73.6082L259.872 73.3082C262.072 73.1082 263.672 75.2082 262.972 77.2082L261.572 81.1082L256.172 80.2082L256.972 73.6082Z" fill="#407BFF"/>
<path opacity="0.2" d="M256.97 73.6088L259.97 73.3088C262.07 73.1088 263.67 75.1088 262.97 77.1088L261.47 81.2088L256.07 80.3088L256.97 73.6088Z" fill="black"/>
<path d="M261.97 81.6075C261.97 81.6075 256.47 105.908 228.17 128.108C220.87 133.908 214.37 118.408 222.27 114.108C228.17 110.908 240.97 104.508 245.87 96.3075C250.87 88.1075 250.77 82.2075 256.07 80.1075C261.37 78.1075 261.97 81.6075 261.97 81.6075Z" fill="#407BFF"/>
<path opacity="0.2" d="M261.97 81.6075C261.97 81.6075 256.47 105.908 228.17 128.108C220.87 133.908 214.37 118.408 222.27 114.108C228.17 110.908 240.97 104.508 245.87 96.3075C250.87 88.1075 250.77 82.2075 256.07 80.1075C261.37 78.1075 261.97 81.6075 261.97 81.6075Z" fill="white"/>
</svg>
