<svg width="38" height="38" viewBox="0 0 38 38" fill="none" xmlns="http://www.w3.org/2000/svg">
<circle cx="19" cy="19" r="18.3667" stroke="#0F6A91" stroke-width="1.26667"/>
<path d="M24.5391 18.208H15.1499L18.0236 14.7564C18.158 14.5947 18.2227 14.3863 18.2034 14.1769C18.1841 13.9676 18.0824 13.7745 17.9207 13.6401C17.7591 13.5057 17.5506 13.4411 17.3413 13.4604C17.132 13.4797 16.9389 13.5814 16.8045 13.743L12.8461 18.493C12.8195 18.5308 12.7957 18.5705 12.7749 18.6118C12.7749 18.6514 12.7749 18.6751 12.7195 18.7147C12.6836 18.8055 12.6648 18.9021 12.6641 18.9997C12.6648 19.0973 12.6836 19.1939 12.7195 19.2847C12.7195 19.3243 12.7195 19.348 12.7749 19.3876C12.7957 19.4289 12.8195 19.4686 12.8461 19.5064L16.8045 24.2564C16.8789 24.3457 16.9721 24.4176 17.0775 24.4668C17.1828 24.5161 17.2978 24.5415 17.4141 24.5414C17.599 24.5417 17.7783 24.4773 17.9207 24.3593C18.0009 24.2928 18.0672 24.2112 18.1157 24.1191C18.1643 24.027 18.1942 23.9262 18.2038 23.8225C18.2133 23.7188 18.2023 23.6143 18.1714 23.5148C18.1405 23.4154 18.0903 23.323 18.0236 23.243L15.1499 19.7914H24.5391C24.749 19.7914 24.9504 19.7079 25.0989 19.5595C25.2473 19.411 25.3307 19.2097 25.3307 18.9997C25.3307 18.7897 25.2473 18.5884 25.0989 18.4399C24.9504 18.2914 24.749 18.208 24.5391 18.208Z" fill="#0F6A91"/>
</svg>
