<svg width="31" height="35" viewBox="0 0 31 35" fill="none" xmlns="http://www.w3.org/2000/svg">
<path d="M3.45031 7.66627C3.45031 7.7094 3.4675 7.95269 3.94137 8.37478C4.41328 8.79513 5.19207 9.25083 6.29873 9.66776C8.49965 10.4969 11.653 11.0443 15.2188 11.0443C18.7846 11.0443 21.9379 10.4969 24.1388 9.66776C25.2455 9.25083 26.0243 8.79513 26.4962 8.37478C26.9701 7.95269 26.9872 7.7094 26.9872 7.66627C26.9872 7.62315 26.9701 7.37986 26.4962 6.95777C26.0243 6.53742 25.2455 6.08172 24.1388 5.66479C21.9379 4.83561 18.7846 4.28822 15.2188 4.28822C11.653 4.28822 8.49965 4.83561 6.29873 5.66479C5.19207 6.08172 4.41328 6.53742 3.94137 6.95777C3.4675 7.37986 3.45031 7.62315 3.45031 7.66627ZM0.0878906 7.66627C0.0878906 6.31016 0.823407 5.22045 1.71072 4.4301C2.59998 3.63801 3.79086 3.00185 5.11811 2.50181C7.78502 1.49707 11.3565 0.910156 15.2188 0.910156C19.081 0.910156 22.6525 1.49707 25.3195 2.50181C26.6467 3.00185 27.8376 3.63801 28.7268 4.4301C29.6142 5.22045 30.3497 6.31016 30.3497 7.66627V14.4224V21.1785V27.9346C30.3497 29.2907 29.6142 30.3805 28.7268 31.1708C27.8376 31.9629 26.6467 32.5991 25.3195 33.0991C22.6525 34.1038 19.081 34.6907 15.2188 34.6907C11.3565 34.6907 7.78502 34.1038 5.11811 33.0991C3.79086 32.5991 2.59998 31.9629 1.71072 31.1708C0.823407 30.3805 0.0878906 29.2907 0.0878906 27.9346V21.1785V14.4224V7.66627ZM3.45031 14.4224C3.45031 14.4655 3.4675 14.7088 3.94137 15.1309C4.41328 15.5512 5.19207 16.0069 6.29873 16.4239C8.49965 17.2531 11.653 17.8005 15.2188 17.8005C18.7846 17.8005 21.9379 17.2531 24.1388 16.4239C25.2455 16.0069 26.0243 15.5512 26.4962 15.1309C26.9701 14.7088 26.9872 14.4655 26.9872 14.4224V12.0851C26.4676 12.3615 25.9069 12.6094 25.3195 12.8307C22.6525 13.8355 19.081 14.4224 15.2188 14.4224C11.3565 14.4224 7.78502 13.8355 5.11811 12.8307C4.53069 12.6094 3.96998 12.3615 3.45031 12.0851V14.4224ZM3.45031 18.8412V21.1785C3.45031 21.2216 3.4675 21.4649 3.94137 21.887C4.41328 22.3074 5.19207 22.7631 6.29873 23.18C8.49965 24.0092 11.653 24.5566 15.2188 24.5566C18.7846 24.5566 21.9379 24.0092 24.1388 23.18C25.2455 22.7631 26.0243 22.3074 26.4962 21.887C26.9701 21.4649 26.9872 21.2216 26.9872 21.1785V18.8412C26.4676 19.1176 25.9069 19.3655 25.3195 19.5869C22.6525 20.5916 19.081 21.1785 15.2188 21.1785C11.3565 21.1785 7.78502 20.5916 5.11811 19.5869C4.53069 19.3655 3.96998 19.1176 3.45031 18.8412ZM3.45031 25.5973V27.9346C3.45031 27.9778 3.4675 28.221 3.94137 28.6431C4.41328 29.0635 5.19207 29.5192 6.29873 29.9361C8.49965 30.7653 11.653 31.3127 15.2188 31.3127C18.7846 31.3127 21.9379 30.7653 24.1388 29.9361C25.2455 29.5192 26.0243 29.0635 26.4962 28.6431C26.9701 28.221 26.9872 27.9778 26.9872 27.9346V25.5973C26.4676 25.8737 25.9069 26.1217 25.3195 26.343C22.6525 27.3477 19.081 27.9346 15.2188 27.9346C11.3565 27.9346 7.78502 27.3477 5.11811 26.343C4.53069 26.1217 3.96998 25.8737 3.45031 25.5973Z" fill="#0D0D0D"/>
</svg>
