<svg width="38" height="38" viewBox="0 0 38 38" fill="none" xmlns="http://www.w3.org/2000/svg">
<circle cx="19" cy="19" r="18.3667" stroke="#0F6A91" stroke-width="1.26667"/>
<path d="M13.4665 19.8551L22.8551 19.7498L20.0202 23.2335C19.8877 23.3967 19.8254 23.6058 19.847 23.8149C19.8687 24.024 19.9725 24.216 20.1357 24.3485C20.2988 24.4811 20.508 24.5434 20.7171 24.5217C20.9262 24.5001 21.1181 24.3963 21.2507 24.2331L25.1555 19.439C25.1817 19.4009 25.2051 19.361 25.2254 19.3195C25.225 19.2799 25.2247 19.2562 25.2797 19.2159C25.3146 19.1248 25.3323 19.028 25.3319 18.9303C25.3301 18.8328 25.3102 18.7363 25.2733 18.646C25.2729 18.6064 25.2726 18.5827 25.2167 18.5437C25.1955 18.5027 25.1712 18.4632 25.1442 18.4258L21.1328 13.7204C21.0574 13.6319 20.9634 13.5611 20.8575 13.513C20.7516 13.4649 20.6364 13.4408 20.5201 13.4423C20.3351 13.444 20.1566 13.5104 20.0155 13.63C19.9361 13.6974 19.8707 13.7797 19.8232 13.8724C19.7757 13.965 19.7469 14.0661 19.7385 14.1699C19.7301 14.2737 19.7422 14.3782 19.7743 14.4772C19.8063 14.5763 19.8575 14.6681 19.9251 14.7474L22.8374 18.1666L13.4488 18.2718C13.2388 18.2742 13.0384 18.3599 12.8916 18.51C12.7448 18.6601 12.6637 18.8624 12.666 19.0723C12.6684 19.2823 12.7541 19.4827 12.9042 19.6295C13.0543 19.7763 13.2566 19.8574 13.4665 19.8551Z" fill="#0F6A91"/>
</svg>
