<svg width="839" height="581" viewBox="0 0 839 581" fill="none" xmlns="http://www.w3.org/2000/svg">
<g filter="url(#filter0_d_1355_6519)">
<rect x="65" y="30.4673" width="709" height="378.12" rx="18" fill="white"/>
</g>
<path d="M222.876 98.7746V111.411H219.798V106.209H215.01V111.411H211.932V98.7746H215.01V103.725H219.798V98.7746H222.876ZM231.074 111.537C229.886 111.537 228.794 111.261 227.798 110.709C226.814 110.157 226.028 109.389 225.44 108.405C224.864 107.409 224.576 106.293 224.576 105.057C224.576 103.821 224.864 102.711 225.44 101.727C226.028 100.743 226.814 99.9746 227.798 99.4226C228.794 98.8706 229.886 98.5946 231.074 98.5946C232.262 98.5946 233.348 98.8706 234.332 99.4226C235.328 99.9746 236.108 100.743 236.672 101.727C237.248 102.711 237.536 103.821 237.536 105.057C237.536 106.293 237.248 107.409 236.672 108.405C236.096 109.389 235.316 110.157 234.332 110.709C233.348 111.261 232.262 111.537 231.074 111.537ZM231.074 108.729C232.082 108.729 232.886 108.393 233.486 107.721C234.098 107.049 234.404 106.161 234.404 105.057C234.404 103.941 234.098 103.053 233.486 102.393C232.886 101.721 232.082 101.385 231.074 101.385C230.054 101.385 229.238 101.715 228.626 102.375C228.026 103.035 227.726 103.929 227.726 105.057C227.726 106.173 228.026 107.067 228.626 107.739C229.238 108.399 230.054 108.729 231.074 108.729ZM256.636 98.7746L253.342 111.411H249.616L247.6 103.095L245.512 111.411H241.786L238.582 98.7746H241.876L243.694 107.973L245.944 98.7746H249.328L251.488 107.973L253.324 98.7746H256.636ZM266.728 98.7746C268.06 98.7746 269.224 99.0386 270.22 99.5666C271.216 100.095 271.984 100.839 272.524 101.799C273.076 102.747 273.352 103.845 273.352 105.093C273.352 106.329 273.076 107.427 272.524 108.387C271.984 109.347 271.21 110.091 270.202 110.619C269.206 111.147 268.048 111.411 266.728 111.411H261.994V98.7746H266.728ZM266.53 108.747C267.694 108.747 268.6 108.429 269.248 107.793C269.896 107.157 270.22 106.257 270.22 105.093C270.22 103.929 269.896 103.023 269.248 102.375C268.6 101.727 267.694 101.403 266.53 101.403H265.072V108.747H266.53ZM281.048 111.537C279.86 111.537 278.768 111.261 277.772 110.709C276.788 110.157 276.002 109.389 275.414 108.405C274.838 107.409 274.55 106.293 274.55 105.057C274.55 103.821 274.838 102.711 275.414 101.727C276.002 100.743 276.788 99.9746 277.772 99.4226C278.768 98.8706 279.86 98.5946 281.048 98.5946C282.236 98.5946 283.322 98.8706 284.306 99.4226C285.302 99.9746 286.082 100.743 286.646 101.727C287.222 102.711 287.51 103.821 287.51 105.057C287.51 106.293 287.222 107.409 286.646 108.405C286.07 109.389 285.29 110.157 284.306 110.709C283.322 111.261 282.236 111.537 281.048 111.537ZM281.048 108.729C282.056 108.729 282.86 108.393 283.46 107.721C284.072 107.049 284.378 106.161 284.378 105.057C284.378 103.941 284.072 103.053 283.46 102.393C282.86 101.721 282.056 101.385 281.048 101.385C280.028 101.385 279.212 101.715 278.6 102.375C278 103.035 277.7 103.929 277.7 105.057C277.7 106.173 278 107.067 278.6 107.739C279.212 108.399 280.028 108.729 281.048 108.729ZM303.873 98.7746L299.499 107.235V111.411H296.421V107.235L292.047 98.7746H295.539L297.987 104.067L300.417 98.7746H303.873ZM311.089 111.537C309.901 111.537 308.809 111.261 307.813 110.709C306.829 110.157 306.043 109.389 305.455 108.405C304.879 107.409 304.591 106.293 304.591 105.057C304.591 103.821 304.879 102.711 305.455 101.727C306.043 100.743 306.829 99.9746 307.813 99.4226C308.809 98.8706 309.901 98.5946 311.089 98.5946C312.277 98.5946 313.363 98.8706 314.347 99.4226C315.343 99.9746 316.123 100.743 316.687 101.727C317.263 102.711 317.551 103.821 317.551 105.057C317.551 106.293 317.263 107.409 316.687 108.405C316.111 109.389 315.331 110.157 314.347 110.709C313.363 111.261 312.277 111.537 311.089 111.537ZM311.089 108.729C312.097 108.729 312.901 108.393 313.501 107.721C314.113 107.049 314.419 106.161 314.419 105.057C314.419 103.941 314.113 103.053 313.501 102.393C312.901 101.721 312.097 101.385 311.089 101.385C310.069 101.385 309.253 101.715 308.641 102.375C308.041 103.035 307.741 103.929 307.741 105.057C307.741 106.173 308.041 107.067 308.641 107.739C309.253 108.399 310.069 108.729 311.089 108.729ZM322.288 98.7746V106.335C322.288 107.091 322.474 107.673 322.846 108.081C323.218 108.489 323.764 108.693 324.484 108.693C325.204 108.693 325.756 108.489 326.14 108.081C326.524 107.673 326.716 107.091 326.716 106.335V98.7746H329.794V106.317C329.794 107.445 329.554 108.399 329.074 109.179C328.594 109.959 327.946 110.547 327.13 110.943C326.326 111.339 325.426 111.537 324.43 111.537C323.434 111.537 322.54 111.345 321.748 110.961C320.968 110.565 320.35 109.977 319.894 109.197C319.438 108.405 319.21 107.445 319.21 106.317V98.7746H322.288ZM353.158 98.7746L349.864 111.411H346.138L344.122 103.095L342.034 111.411H338.308L335.104 98.7746H338.398L340.216 107.973L342.466 98.7746H345.85L348.01 107.973L349.846 98.7746H353.158ZM362.567 109.179H357.851L357.095 111.411H353.873L358.445 98.7746H362.009L366.581 111.411H363.323L362.567 109.179ZM361.775 106.803L360.209 102.177L358.661 106.803H361.775ZM379.277 111.411H376.199L371.051 103.617V111.411H367.973V98.7746H371.051L376.199 106.605V98.7746H379.277V111.411ZM390.598 98.7746V101.241H387.25V111.411H384.172V101.241H380.824V98.7746H390.598ZM405.047 98.7746V101.241H401.699V111.411H398.621V101.241H395.273V98.7746H405.047ZM412.568 111.537C411.38 111.537 410.288 111.261 409.292 110.709C408.308 110.157 407.522 109.389 406.934 108.405C406.358 107.409 406.07 106.293 406.07 105.057C406.07 103.821 406.358 102.711 406.934 101.727C407.522 100.743 408.308 99.9746 409.292 99.4226C410.288 98.8706 411.38 98.5946 412.568 98.5946C413.756 98.5946 414.842 98.8706 415.826 99.4226C416.822 99.9746 417.602 100.743 418.166 101.727C418.742 102.711 419.03 103.821 419.03 105.057C419.03 106.293 418.742 107.409 418.166 108.405C417.59 109.389 416.81 110.157 415.826 110.709C414.842 111.261 413.756 111.537 412.568 111.537ZM412.568 108.729C413.576 108.729 414.38 108.393 414.98 107.721C415.592 107.049 415.898 106.161 415.898 105.057C415.898 103.941 415.592 103.053 414.98 102.393C414.38 101.721 413.576 101.385 412.568 101.385C411.548 101.385 410.732 101.715 410.12 102.375C409.52 103.035 409.22 103.929 409.22 105.057C409.22 106.173 409.52 107.067 410.12 107.739C410.732 108.399 411.548 108.729 412.568 108.729ZM424.035 105.075C424.035 103.827 424.305 102.717 424.845 101.745C425.385 100.761 426.135 99.9986 427.095 99.4586C428.067 98.9066 429.165 98.6306 430.389 98.6306C431.889 98.6306 433.173 99.0266 434.241 99.8186C435.309 100.611 436.023 101.691 436.383 103.059H432.999C432.747 102.531 432.387 102.129 431.919 101.853C431.463 101.577 430.941 101.439 430.353 101.439C429.405 101.439 428.637 101.769 428.049 102.429C427.461 103.089 427.167 103.971 427.167 105.075C427.167 106.179 427.461 107.061 428.049 107.721C428.637 108.381 429.405 108.711 430.353 108.711C430.941 108.711 431.463 108.573 431.919 108.297C432.387 108.021 432.747 107.619 432.999 107.091H436.383C436.023 108.459 435.309 109.539 434.241 110.331C433.173 111.111 431.889 111.501 430.389 111.501C429.165 111.501 428.067 111.231 427.095 110.691C426.135 110.139 425.385 109.377 424.845 108.405C424.305 107.433 424.035 106.323 424.035 105.075ZM444.712 111.411L442.084 106.641H441.346V111.411H438.268V98.7746H443.434C444.43 98.7746 445.276 98.9486 445.972 99.2966C446.68 99.6446 447.208 100.125 447.556 100.737C447.904 101.337 448.078 102.009 448.078 102.753C448.078 103.593 447.838 104.343 447.358 105.003C446.89 105.663 446.194 106.131 445.27 106.407L448.186 111.411H444.712ZM441.346 104.463H443.254C443.818 104.463 444.238 104.325 444.514 104.049C444.802 103.773 444.946 103.383 444.946 102.879C444.946 102.399 444.802 102.021 444.514 101.745C444.238 101.469 443.818 101.331 443.254 101.331H441.346V104.463ZM453.088 101.241V103.797H457.21V106.173H453.088V108.945H457.75V111.411H450.01V98.7746H457.75V101.241H453.088ZM467.614 109.179H462.898L462.142 111.411H458.92L463.492 98.7746H467.056L471.628 111.411H468.37L467.614 109.179ZM466.822 106.803L465.256 102.177L463.708 106.803H466.822ZM482.11 98.7746V101.241H478.762V111.411H475.684V101.241H472.336V98.7746H482.11ZM486.732 101.241V103.797H490.854V106.173H486.732V108.945H491.394V111.411H483.654V98.7746H491.394V101.241H486.732ZM508.043 98.7746L503.669 107.235V111.411H500.591V107.235L496.217 98.7746H499.709L502.157 104.067L504.587 98.7746H508.043ZM515.259 111.537C514.071 111.537 512.979 111.261 511.983 110.709C510.999 110.157 510.213 109.389 509.625 108.405C509.049 107.409 508.761 106.293 508.761 105.057C508.761 103.821 509.049 102.711 509.625 101.727C510.213 100.743 510.999 99.9746 511.983 99.4226C512.979 98.8706 514.071 98.5946 515.259 98.5946C516.447 98.5946 517.533 98.8706 518.517 99.4226C519.513 99.9746 520.293 100.743 520.857 101.727C521.433 102.711 521.721 103.821 521.721 105.057C521.721 106.293 521.433 107.409 520.857 108.405C520.281 109.389 519.501 110.157 518.517 110.709C517.533 111.261 516.447 111.537 515.259 111.537ZM515.259 108.729C516.267 108.729 517.071 108.393 517.671 107.721C518.283 107.049 518.589 106.161 518.589 105.057C518.589 103.941 518.283 103.053 517.671 102.393C517.071 101.721 516.267 101.385 515.259 101.385C514.239 101.385 513.423 101.715 512.811 102.375C512.211 103.035 511.911 103.929 511.911 105.057C511.911 106.173 512.211 107.067 512.811 107.739C513.423 108.399 514.239 108.729 515.259 108.729ZM526.458 98.7746V106.335C526.458 107.091 526.644 107.673 527.016 108.081C527.388 108.489 527.934 108.693 528.654 108.693C529.374 108.693 529.926 108.489 530.31 108.081C530.694 107.673 530.886 107.091 530.886 106.335V98.7746H533.964V106.317C533.964 107.445 533.724 108.399 533.244 109.179C532.764 109.959 532.116 110.547 531.3 110.943C530.496 111.339 529.596 111.537 528.6 111.537C527.604 111.537 526.71 111.345 525.918 110.961C525.138 110.565 524.52 109.977 524.064 109.197C523.608 108.405 523.38 107.445 523.38 106.317V98.7746H526.458ZM542.569 111.411L539.941 106.641H539.203V111.411H536.125V98.7746H541.291C542.287 98.7746 543.133 98.9486 543.829 99.2966C544.537 99.6446 545.065 100.125 545.413 100.737C545.761 101.337 545.935 102.009 545.935 102.753C545.935 103.593 545.695 104.343 545.215 105.003C544.747 105.663 544.051 106.131 543.127 106.407L546.043 111.411H542.569ZM539.203 104.463H541.111C541.675 104.463 542.095 104.325 542.371 104.049C542.659 103.773 542.803 103.383 542.803 102.879C542.803 102.399 542.659 102.021 542.371 101.745C542.095 101.469 541.675 101.331 541.111 101.331H539.203V104.463ZM559.908 98.7746V101.241H554.76V103.905H558.612V106.299H554.76V111.411H551.682V98.7746H559.908ZM564.55 98.7746V106.335C564.55 107.091 564.736 107.673 565.108 108.081C565.48 108.489 566.026 108.693 566.746 108.693C567.466 108.693 568.018 108.489 568.402 108.081C568.786 107.673 568.978 107.091 568.978 106.335V98.7746H572.056V106.317C572.056 107.445 571.816 108.399 571.336 109.179C570.856 109.959 570.208 110.547 569.392 110.943C568.588 111.339 567.688 111.537 566.692 111.537C565.696 111.537 564.802 111.345 564.01 110.961C563.23 110.565 562.612 109.977 562.156 109.197C561.7 108.405 561.472 107.445 561.472 106.317V98.7746H564.55ZM585.521 111.411H582.443L577.295 103.617V111.411H574.217V98.7746H577.295L582.443 106.605V98.7746H585.521V111.411ZM599.056 111.411H595.978L590.83 103.617V111.411H587.752V98.7746H590.83L595.978 106.605V98.7746H599.056V111.411ZM604.365 101.241V103.797H608.487V106.173H604.365V108.945H609.027V111.411H601.287V98.7746H609.027V101.241H604.365ZM614.104 109.035H618.136V111.411H611.026V98.7746H614.104V109.035ZM623.294 98.0726C624.578 98.0726 625.604 98.4086 626.372 99.0806C627.152 99.7526 627.542 100.701 627.542 101.925C627.542 103.053 627.17 103.935 626.426 104.571C625.694 105.195 624.722 105.513 623.51 105.525L623.42 106.875H620.72L620.63 103.527H621.71C622.634 103.527 623.336 103.413 623.816 103.185C624.308 102.957 624.554 102.543 624.554 101.943C624.554 101.523 624.44 101.193 624.212 100.953C623.984 100.713 623.666 100.593 623.258 100.593C622.826 100.593 622.49 100.719 622.25 100.971C622.01 101.211 621.89 101.541 621.89 101.961H618.992C618.968 101.229 619.118 100.569 619.442 99.9806C619.778 99.3926 620.27 98.9306 620.918 98.5946C621.578 98.2466 622.37 98.0726 623.294 98.0726ZM622.106 111.555C621.566 111.555 621.122 111.399 620.774 111.087C620.438 110.763 620.27 110.367 620.27 109.899C620.27 109.419 620.438 109.017 620.774 108.693C621.122 108.369 621.566 108.207 622.106 108.207C622.634 108.207 623.066 108.369 623.402 108.693C623.75 109.017 623.924 109.419 623.924 109.899C623.924 110.367 623.75 110.763 623.402 111.087C623.066 111.399 622.634 111.555 622.106 111.555Z" fill="#436A9F"/>
<g filter="url(#filter1_d_1355_6519)">
<path d="M447.047 142.85H735.047V141.85H447.047V142.85ZM738.547 146.35V311.35H739.547V146.35H738.547ZM735.047 314.85H447.047V315.85H735.047V314.85ZM443.547 311.35V146.35H442.547V311.35H443.547ZM447.047 314.85C445.114 314.85 443.547 313.283 443.547 311.35H442.547C442.547 313.835 444.562 315.85 447.047 315.85V314.85ZM738.547 311.35C738.547 313.283 736.98 314.85 735.047 314.85V315.85C737.532 315.85 739.547 313.835 739.547 311.35H738.547ZM735.047 142.85C736.98 142.85 738.547 144.417 738.547 146.35H739.547C739.547 143.864 737.532 141.85 735.047 141.85V142.85ZM447.047 141.85C444.562 141.85 442.547 143.864 442.547 146.35H443.547C443.547 144.417 445.114 142.85 447.047 142.85V141.85Z" fill="#EAEAEA"/>
</g>
<path d="M512.476 293.171H509.332L508.828 294.659H506.68L509.728 286.235H512.104L515.152 294.659H512.98L512.476 293.171ZM511.948 291.587L510.904 288.503L509.872 291.587H511.948ZM519.346 286.235V291.275C519.346 291.779 519.47 292.167 519.718 292.439C519.966 292.711 520.33 292.847 520.81 292.847C521.29 292.847 521.658 292.711 521.914 292.439C522.17 292.167 522.298 291.779 522.298 291.275V286.235H524.35V291.263C524.35 292.015 524.19 292.651 523.87 293.171C523.55 293.691 523.118 294.083 522.574 294.347C522.038 294.611 521.438 294.743 520.774 294.743C520.11 294.743 519.514 294.615 518.986 294.359C518.466 294.095 518.054 293.703 517.75 293.183C517.446 292.655 517.294 292.015 517.294 291.263V286.235H519.346ZM533.101 286.235V287.879H530.869V294.659H528.817V287.879H526.585V286.235H533.101ZM539.365 294.743C538.573 294.743 537.845 294.559 537.181 294.191C536.525 293.823 536.001 293.311 535.609 292.655C535.225 291.991 535.033 291.247 535.033 290.423C535.033 289.599 535.225 288.859 535.609 288.203C536.001 287.547 536.525 287.035 537.181 286.667C537.845 286.299 538.573 286.115 539.365 286.115C540.157 286.115 540.881 286.299 541.537 286.667C542.201 287.035 542.721 287.547 543.097 288.203C543.481 288.859 543.673 289.599 543.673 290.423C543.673 291.247 543.481 291.991 543.097 292.655C542.713 293.311 542.193 293.823 541.537 294.191C540.881 294.559 540.157 294.743 539.365 294.743ZM539.365 292.871C540.037 292.871 540.573 292.647 540.973 292.199C541.381 291.751 541.585 291.159 541.585 290.423C541.585 289.679 541.381 289.087 540.973 288.647C540.573 288.199 540.037 287.975 539.365 287.975C538.685 287.975 538.141 288.195 537.733 288.635C537.333 289.075 537.133 289.671 537.133 290.423C537.133 291.167 537.333 291.763 537.733 292.211C538.141 292.651 538.685 292.871 539.365 292.871ZM555.604 286.235V294.659H553.552V289.607L551.668 294.659H550.012L548.116 289.595V294.659H546.064V286.235H548.488L550.852 292.067L553.192 286.235H555.604ZM563.574 293.171H560.43L559.926 294.659H557.778L560.826 286.235H563.202L566.25 294.659H564.078L563.574 293.171ZM563.046 291.587L562.002 288.503L560.97 291.587H563.046ZM574.488 286.235V287.879H572.256V294.659H570.204V287.879H567.972V286.235H574.488ZM578.819 286.235V294.659H576.767V286.235H578.819ZM581.208 290.435C581.208 289.603 581.389 288.863 581.749 288.215C582.109 287.559 582.609 287.051 583.249 286.691C583.897 286.323 584.629 286.139 585.445 286.139C586.445 286.139 587.301 286.403 588.013 286.931C588.725 287.459 589.201 288.179 589.441 289.091H587.185C587.017 288.739 586.777 288.471 586.465 288.287C586.161 288.103 585.813 288.011 585.421 288.011C584.789 288.011 584.277 288.231 583.885 288.671C583.493 289.111 583.297 289.699 583.297 290.435C583.297 291.171 583.493 291.759 583.885 292.199C584.277 292.639 584.789 292.859 585.421 292.859C585.813 292.859 586.161 292.767 586.465 292.583C586.777 292.399 587.017 292.131 587.185 291.779H589.441C589.201 292.691 588.725 293.411 588.013 293.939C587.301 294.459 586.445 294.719 585.445 294.719C584.629 294.719 583.897 294.539 583.249 294.179C582.609 293.811 582.109 293.303 581.749 292.655C581.389 292.007 581.208 291.267 581.208 290.435ZM597.191 293.171H594.047L593.543 294.659H591.395L594.443 286.235H596.819L599.867 294.659H597.695L597.191 293.171ZM596.663 291.587L595.619 288.503L594.587 291.587H596.663ZM604.097 293.075H606.785V294.659H602.045V286.235H604.097V293.075ZM611.066 293.075H613.754V294.659H609.014V286.235H611.066V293.075ZM623.206 286.235L620.29 291.875V294.659H618.238V291.875L615.322 286.235H617.65L619.282 289.763L620.902 286.235H623.206ZM635.136 286.235V287.879H632.904V294.659H630.852V287.879H628.62V286.235H635.136ZM641.712 294.659L639.96 291.479H639.468V294.659H637.416V286.235H640.86C641.524 286.235 642.088 286.351 642.552 286.583C643.024 286.815 643.376 287.135 643.608 287.543C643.84 287.943 643.956 288.391 643.956 288.887C643.956 289.447 643.796 289.947 643.476 290.387C643.164 290.827 642.7 291.139 642.084 291.323L644.028 294.659H641.712ZM639.468 290.027H640.74C641.116 290.027 641.396 289.935 641.58 289.751C641.772 289.567 641.868 289.307 641.868 288.971C641.868 288.651 641.772 288.399 641.58 288.215C641.396 288.031 641.116 287.939 640.74 287.939H639.468V290.027ZM651.738 293.171H648.594L648.09 294.659H645.942L648.99 286.235H651.366L654.414 294.659H652.242L651.738 293.171ZM651.21 291.587L650.166 288.503L649.134 291.587H651.21ZM656.244 290.435C656.244 289.603 656.424 288.863 656.784 288.215C657.144 287.559 657.644 287.051 658.284 286.691C658.932 286.323 659.664 286.139 660.48 286.139C661.48 286.139 662.336 286.403 663.048 286.931C663.76 287.459 664.236 288.179 664.476 289.091H662.22C662.052 288.739 661.812 288.471 661.5 288.287C661.196 288.103 660.848 288.011 660.456 288.011C659.824 288.011 659.312 288.231 658.92 288.671C658.528 289.111 658.332 289.699 658.332 290.435C658.332 291.171 658.528 291.759 658.92 292.199C659.312 292.639 659.824 292.859 660.456 292.859C660.848 292.859 661.196 292.767 661.5 292.583C661.812 292.399 662.052 292.131 662.22 291.779H664.476C664.236 292.691 663.76 293.411 663.048 293.939C662.336 294.459 661.48 294.719 660.48 294.719C659.664 294.719 658.932 294.539 658.284 294.179C657.644 293.811 657.144 293.303 656.784 292.655C656.424 292.007 656.244 291.267 656.244 290.435ZM671.866 294.659L669.034 290.939V294.659H666.982V286.235H669.034V289.931L671.842 286.235H674.254L670.99 290.363L674.374 294.659H671.866Z" fill="#436A9F"/>
<path d="M597.419 259.966C597.631 258.84 597.988 257.743 598.241 256.626C598.326 256.251 598.48 256.111 598.863 256.056C600.214 255.887 601.551 255.619 602.862 255.252C603.259 255.135 603.389 255.355 603.565 255.591C604.341 256.643 605.115 257.7 605.898 258.75C606.97 260.183 608.44 260.64 609.9 260.003C611.335 259.377 612.014 257.947 611.723 256.207C611.522 254.998 611.349 253.782 611.156 252.57C611.087 252.14 611.142 251.835 611.596 251.592C612.698 250.988 613.745 250.288 614.726 249.501C615.081 249.224 615.324 249.2 615.707 249.443C616.833 250.159 617.989 250.829 619.137 251.511C619.819 251.917 620.546 252.168 621.352 252.029C623.649 251.632 624.777 249.327 623.648 247.272C622.966 246.032 622.218 244.828 621.468 243.626C621.248 243.274 621.267 243.039 621.521 242.713C622.304 241.731 623.003 240.685 623.612 239.586C623.87 239.114 624.185 239.032 624.65 239.115C625.491 239.263 626.334 239.414 627.18 239.519C628.026 239.623 628.922 239.898 629.803 239.68C631.09 239.373 631.928 238.568 632.227 237.279C632.52 236.016 632.122 234.932 631.125 234.131C629.98 233.211 628.788 232.346 627.598 231.486C627.284 231.261 627.234 231.06 627.318 230.682C627.608 229.408 627.871 228.128 628.09 226.84C628.159 226.426 628.315 226.267 628.711 226.174C630.062 225.852 631.405 225.505 632.747 225.154C633.729 224.897 634.477 224.337 634.9 223.385C635.704 221.578 634.833 219.612 632.906 219.033C631.526 218.62 630.12 218.297 628.724 217.966C628.335 217.872 628.167 217.723 628.097 217.305C627.875 215.991 627.614 214.682 627.308 213.384C627.223 213.015 627.339 212.859 627.601 212.668C628.661 211.898 629.708 211.113 630.757 210.328C632.204 209.244 632.687 207.789 632.071 206.338C631.45 204.863 630.009 204.177 628.224 204.481C627.04 204.682 625.848 204.836 624.664 205.042C624.143 205.134 623.86 204.978 623.577 204.508C622.961 203.477 622.279 202.485 621.573 201.512C621.299 201.135 621.237 200.881 621.507 200.463C622.214 199.365 622.874 198.231 623.532 197.1C624.408 195.594 624.276 194.165 623.184 193.056C622.058 191.92 620.611 191.782 619.081 192.679C617.955 193.342 616.821 194.005 615.716 194.704C615.34 194.944 615.094 194.945 614.735 194.659C613.781 193.884 612.758 193.198 611.679 192.61C611.177 192.342 611.081 192.02 611.166 191.517C611.374 190.306 611.549 189.092 611.742 187.879C612.014 186.184 611.327 184.78 609.918 184.159C608.456 183.516 606.984 183.965 605.913 185.397C605.128 186.446 604.351 187.499 603.581 188.558C603.38 188.834 603.212 189.006 602.801 188.879C601.573 188.514 600.314 188.262 599.04 188.127C598.471 188.069 598.287 187.805 598.178 187.303C597.913 186.105 597.605 184.917 597.309 183.725C597.111 182.932 596.782 182.21 596.121 181.687C594.322 180.269 591.778 181.068 591.098 183.295C590.713 184.571 590.411 185.869 590.121 187.175C589.993 187.76 589.782 188.088 589.118 188.139C587.922 188.263 586.741 188.498 585.59 188.842C585.164 188.963 584.92 188.881 584.662 188.511C583.927 187.461 583.15 186.44 582.383 185.41C581.305 183.963 579.832 183.493 578.391 184.124C576.913 184.767 576.247 186.185 576.551 187.983C576.755 189.193 576.918 190.41 577.114 191.621C577.181 192.035 577.101 192.31 576.696 192.535C575.575 193.161 574.506 193.875 573.5 194.672C573.178 194.933 572.938 194.933 572.588 194.711C571.462 194 570.308 193.318 569.152 192.649C567.642 191.777 566.221 191.916 565.112 193.014C564.002 194.112 563.847 195.573 564.751 197.118C565.412 198.244 566.073 199.37 566.775 200.483C567.019 200.865 566.981 201.105 566.72 201.464C565.999 202.457 565.297 203.469 564.672 204.519C564.381 205.013 564.066 205.095 563.569 205.011C562.332 204.802 561.092 204.612 559.85 204.431C558.173 204.185 556.762 204.928 556.18 206.351C555.598 207.774 556.05 209.196 557.412 210.227C558.477 211.032 559.549 211.826 560.629 212.61C560.915 212.816 561.039 212.994 560.951 213.395C560.645 214.693 560.388 216.002 560.161 217.316C560.095 217.695 559.961 217.855 559.59 217.94C558.472 218.197 557.373 218.553 556.249 218.763C554.67 219.057 553.557 219.846 553.055 221.407V222.694C553.565 224.246 554.663 225.043 556.249 225.338C557.375 225.547 558.472 225.902 559.59 226.159C559.958 226.245 560.095 226.401 560.161 226.782C560.388 228.094 560.643 229.403 560.949 230.701C561.042 231.097 560.925 231.28 560.638 231.487C559.555 232.272 558.483 233.066 557.422 233.869C556.03 234.923 555.594 236.376 556.22 237.813C556.835 239.225 558.242 239.924 559.928 239.66C561.166 239.466 562.409 239.291 563.645 239.078C564.127 238.993 564.402 239.135 564.669 239.572C565.313 240.621 565.991 241.645 566.722 242.628C567.021 243.03 566.989 243.289 566.744 243.678C566.046 244.784 565.38 245.912 564.724 247.042C563.857 248.538 564.003 249.979 565.107 251.079C566.21 252.179 567.635 252.332 569.146 251.463C570.279 250.81 571.413 250.156 572.509 249.442C572.956 249.152 573.228 249.223 573.623 249.512C574.564 250.216 575.542 250.87 576.552 251.47C577.102 251.791 577.196 252.142 577.094 252.701C576.881 253.909 576.696 255.123 576.522 256.338C576.327 257.682 576.67 258.846 577.821 259.651C578.846 260.366 579.953 260.434 581.083 259.879C581.653 259.601 582.048 259.141 582.425 258.641C583.17 257.631 583.932 256.632 584.656 255.608C584.903 255.26 585.122 255.138 585.571 255.244C586.842 255.545 588.125 255.797 589.412 256.019C589.793 256.085 589.944 256.223 590.03 256.593C590.284 257.711 590.641 258.808 590.851 259.932C591.147 261.511 591.947 262.615 593.499 263.124H594.786C596.325 262.652 597.123 261.545 597.419 259.966ZM593.87 251.431C587.186 251.27 581.164 249.231 575.893 245.042C571.336 241.418 568.152 236.84 566.284 231.346C565.114 227.958 564.61 224.376 564.8 220.798C565.178 214.067 567.478 208.07 571.927 202.946C576.665 197.478 582.632 194.233 589.742 193.078C592.563 192.6 595.443 192.594 598.266 193.061C598.427 193.088 598.588 193.125 598.749 193.167C599.231 193.287 599.714 193.434 600.216 193.411C603.801 194.141 607.211 195.561 610.254 197.593C610.959 198.059 611.649 198.559 612.324 199.091C615.818 201.836 618.634 205.347 620.556 209.352C622.159 212.696 623.111 216.315 623.363 220.014C623.777 225.219 622.755 230.437 620.408 235.101C617.46 241.052 612.95 245.506 606.987 248.449C604.847 249.534 602.564 250.313 600.206 250.762C598.118 251.196 596.008 251.484 593.87 251.431Z" fill="#2D4898"/>
<path d="M602.044 249.924C605.488 248.452 608.548 246.209 610.987 243.367C614.307 239.56 616.388 235.165 617.624 230.31C618.547 226.679 618.727 222.976 618.481 219.279C618.198 214.798 616.965 210.428 614.863 206.46C612.091 201.23 608.225 197.084 602.776 194.559C602.149 194.27 601.48 194.077 600.846 193.803C600.621 193.708 600.285 193.747 600.214 193.398C599.706 193.421 599.228 193.274 598.747 193.154C598.586 193.112 598.425 193.075 598.264 193.047C595.441 192.581 592.561 192.587 589.74 193.065C582.63 194.22 576.663 197.47 571.925 202.933C567.476 208.063 565.169 214.06 564.798 220.784C564.606 224.37 565.11 227.958 566.282 231.352C568.15 236.846 571.334 241.424 575.891 245.048C581.159 249.237 587.184 251.27 593.868 251.437C596.006 251.49 598.116 251.202 600.209 250.771C600.68 250.186 601.43 250.186 602.044 249.924ZM596.559 206.103C596.596 204.104 598.168 202.985 600.067 203.623C606.327 205.733 610.509 209.924 612.613 216.195C613.231 218.039 612.108 219.596 610.152 219.66C609.905 219.66 609.659 219.673 609.411 219.675C608.671 219.675 607.929 219.667 607.188 219.667C606.223 219.667 605.258 219.667 604.304 219.667C603.905 219.667 603.712 219.549 603.574 219.125C602.519 215.887 600.357 213.72 597.122 212.652C596.662 212.5 596.547 212.295 596.548 211.867C596.558 209.942 596.522 208.018 596.559 206.103ZM575.629 216.117C577.794 209.972 581.894 205.814 588.03 203.665C590.143 202.924 591.691 204.081 591.702 206.347C591.702 207.229 591.702 208.116 591.702 208.991C591.702 209.713 591.702 210.439 591.702 211.156C591.702 211.397 591.702 211.638 591.712 211.878C591.72 212.311 591.584 212.507 591.129 212.658C587.938 213.728 585.764 215.862 584.704 219.065C584.543 219.564 584.319 219.676 583.862 219.673C581.964 219.658 580.067 219.658 578.17 219.673C576.402 219.676 574.953 218.033 575.629 216.111V216.117ZM591.61 238.658C591.268 240.305 589.917 241.087 588.302 240.606C585.649 239.815 583.332 238.441 581.262 236.613C578.6 234.26 576.788 231.384 575.617 228.033C575.471 227.64 575.421 227.218 575.472 226.803C575.523 226.387 575.674 225.99 575.912 225.645C576.15 225.3 576.468 225.018 576.838 224.822C577.209 224.627 577.621 224.524 578.04 224.522C580.017 224.498 581.995 224.522 583.972 224.511C584.385 224.511 584.551 224.662 584.686 225.074C585.747 228.313 587.932 230.461 591.158 231.532C591.576 231.672 591.712 231.854 591.707 232.257C591.692 233.247 591.707 234.234 591.707 235.432C591.631 236.362 591.845 237.518 591.61 238.652V238.658ZM594.129 227.06C591.44 227.06 589.164 224.795 589.157 222.113C589.168 220.79 589.7 219.525 590.637 218.592C591.574 217.659 592.842 217.132 594.164 217.127C596.842 217.139 599.102 219.424 599.096 222.113C599.089 224.802 596.815 227.053 594.129 227.053V227.06ZM596.556 238.078C596.556 237.836 596.545 237.595 596.543 237.356C596.543 236.635 596.543 235.908 596.543 235.192C596.543 234.477 596.543 233.745 596.543 233.031C596.543 232.79 596.543 232.549 596.543 232.309C596.543 231.88 596.659 231.677 597.121 231.526C600.355 230.463 602.504 228.277 603.569 225.051C603.709 224.626 603.904 224.511 604.301 224.512C606.25 224.52 608.201 224.483 610.149 224.525C612.097 224.567 613.228 226.145 612.608 227.989C610.506 234.245 606.326 238.452 600.063 240.561C598.173 241.193 596.612 240.072 596.556 238.071V238.078Z" fill="#88A3FA"/>
<path d="M600.209 193.398C599.701 193.421 599.223 193.274 598.742 193.154C599.225 193.274 599.707 193.421 600.209 193.398Z" fill="#A2D2F9"/>
<path d="M600.84 193.81C601.483 194.08 602.148 194.276 602.77 194.566C608.22 197.084 612.085 201.23 614.858 206.467C616.959 210.435 618.192 214.805 618.475 219.286C618.721 222.985 618.541 226.684 617.618 230.317C616.382 235.169 614.301 239.567 610.981 243.374C608.542 246.216 605.483 248.459 602.038 249.931C601.424 250.193 600.674 250.193 600.203 250.772C602.561 250.323 604.844 249.544 606.984 248.459C612.947 245.513 617.457 241.061 620.405 235.111C622.752 230.447 623.774 225.229 623.36 220.024C623.109 216.321 622.157 212.699 620.553 209.352C618.629 205.345 615.809 201.834 612.311 199.09C611.636 198.554 610.946 198.054 610.241 197.591C607.198 195.56 603.789 194.14 600.203 193.41C600.287 193.754 600.608 193.72 600.84 193.81Z" fill="#6B85DA"/>
<path d="M610.249 197.591C607.206 195.559 603.797 194.139 600.211 193.41C603.796 194.14 607.206 195.56 610.249 197.591Z" fill="#A2D2F9"/>
<path d="M596.553 235.186C596.553 234.466 596.553 233.739 596.553 233.025C596.553 233.745 596.553 234.472 596.553 235.186C596.553 235.9 596.54 236.634 596.553 237.349C596.54 236.629 596.553 235.908 596.553 235.186Z" fill="#FDFEFE"/>
<path d="M607.189 219.661C606.224 219.661 605.258 219.661 604.305 219.661C605.27 219.648 606.227 219.661 607.189 219.661C607.93 219.661 608.672 219.675 609.411 219.669C608.672 219.675 607.93 219.661 607.189 219.661Z" fill="#FDFEFE"/>
<g filter="url(#filter2_d_1355_6519)">
<path d="M113.406 135.35C113.406 133.14 115.197 131.35 117.406 131.35H404.889C407.098 131.35 408.889 133.14 408.889 135.35V319.946C408.889 322.155 407.098 323.946 404.889 323.946H117.406C115.197 323.946 113.406 322.155 113.406 319.946V135.35Z" fill="#F4F8FF"/>
</g>
<path d="M207.626 274.67V283.094H205.574V278.042L203.69 283.094H202.034L200.138 278.03V283.094H198.086V274.67H200.51L202.874 280.502L205.214 274.67H207.626ZM215.596 281.606H212.452L211.948 283.094H209.8L212.848 274.67H215.224L218.272 283.094H216.1L215.596 281.606ZM215.068 280.022L214.024 276.938L212.992 280.022H215.068ZM227.986 283.094H225.934L222.502 277.898V283.094H220.45V274.67H222.502L225.934 279.89V274.67H227.986V283.094ZM232.739 274.67V279.71C232.739 280.214 232.863 280.602 233.111 280.874C233.359 281.146 233.723 281.282 234.203 281.282C234.683 281.282 235.051 281.146 235.307 280.874C235.563 280.602 235.691 280.214 235.691 279.71V274.67H237.743V279.698C237.743 280.45 237.583 281.086 237.263 281.606C236.943 282.126 236.511 282.518 235.967 282.782C235.431 283.046 234.831 283.178 234.167 283.178C233.503 283.178 232.907 283.05 232.379 282.794C231.859 282.53 231.447 282.138 231.143 281.618C230.839 281.09 230.687 280.45 230.687 279.698V274.67H232.739ZM245.678 281.606H242.534L242.03 283.094H239.882L242.93 274.67H245.306L248.354 283.094H246.182L245.678 281.606ZM245.15 280.022L244.106 276.938L243.074 280.022H245.15ZM252.584 281.51H255.272V283.094H250.532V274.67H252.584V281.51ZM259.553 281.51H262.241V283.094H257.501V274.67H259.553V281.51ZM271.693 274.67L268.777 280.31V283.094H266.725V280.31L263.809 274.67H266.137L267.769 278.198L269.389 274.67H271.693ZM283.623 274.67V276.314H281.391V283.094H279.339V276.314H277.107V274.67H283.623ZM290.199 283.094L288.447 279.914H287.955V283.094H285.903V274.67H289.347C290.011 274.67 290.575 274.786 291.039 275.018C291.511 275.25 291.863 275.57 292.095 275.978C292.327 276.378 292.443 276.826 292.443 277.322C292.443 277.882 292.283 278.382 291.963 278.822C291.651 279.262 291.187 279.574 290.571 279.758L292.515 283.094H290.199ZM287.955 278.462H289.227C289.603 278.462 289.883 278.37 290.067 278.186C290.259 278.002 290.355 277.742 290.355 277.406C290.355 277.086 290.259 276.834 290.067 276.65C289.883 276.466 289.603 276.374 289.227 276.374H287.955V278.462ZM300.225 281.606H297.081L296.577 283.094H294.429L297.477 274.67H299.853L302.901 283.094H300.729L300.225 281.606ZM299.697 280.022L298.653 276.938L297.621 280.022H299.697ZM304.731 278.87C304.731 278.038 304.911 277.298 305.271 276.65C305.631 275.994 306.131 275.486 306.771 275.126C307.419 274.758 308.151 274.574 308.967 274.574C309.967 274.574 310.823 274.838 311.535 275.366C312.247 275.894 312.723 276.614 312.963 277.526H310.707C310.539 277.174 310.299 276.906 309.987 276.722C309.683 276.538 309.335 276.446 308.943 276.446C308.311 276.446 307.799 276.666 307.407 277.106C307.015 277.546 306.819 278.134 306.819 278.87C306.819 279.606 307.015 280.194 307.407 280.634C307.799 281.074 308.311 281.294 308.943 281.294C309.335 281.294 309.683 281.202 309.987 281.018C310.299 280.834 310.539 280.566 310.707 280.214H312.963C312.723 281.126 312.247 281.846 311.535 282.374C310.823 282.894 309.967 283.154 308.967 283.154C308.151 283.154 307.419 282.974 306.771 282.614C306.131 282.246 305.631 281.738 305.271 281.09C304.911 280.442 304.731 279.702 304.731 278.87ZM320.353 283.094L317.521 279.374V283.094H315.469V274.67H317.521V278.366L320.329 274.67H322.741L319.477 278.798L322.861 283.094H320.353Z" fill="#436A9F"/>
<path d="M253.015 256.998C252.226 256.799 251.433 256.62 250.652 256.394C246.913 255.305 243.952 253.143 241.856 249.844C237.55 243.065 233.254 236.277 228.97 229.481C227.61 227.324 227.536 225.072 228.798 222.871C230.06 220.671 232.036 219.648 234.542 219.759C235.503 219.779 236.445 220.035 237.284 220.505C238.123 220.974 238.834 221.643 239.355 222.453C241.641 225.833 243.918 229.219 246.187 232.612C246.3 232.78 246.424 232.943 246.671 233.29V232.316C246.671 219.047 246.671 205.776 246.671 192.505C246.671 189.527 248.914 187.353 251.844 187.445C254.462 187.526 256.531 189.742 256.544 192.537C256.564 196.806 256.544 201.075 256.544 205.342V206.19C257.081 204.917 257.823 203.826 259.057 203.163C260.292 202.5 261.574 202.284 262.923 202.79C262.923 220.86 262.923 238.929 262.923 256.998H253.015Z" fill="#88A3FA"/>
<path d="M262.914 256.999C262.914 238.929 262.914 220.859 262.914 202.791C264.911 203.243 266.389 205.243 266.435 207.582C266.455 208.586 266.435 209.59 266.491 210.615C266.957 209.626 267.482 208.712 268.39 208.079C269.98 206.967 271.683 206.782 273.42 207.599C275.128 208.402 276.111 209.794 276.234 211.717C276.286 212.565 276.26 213.42 276.272 214.272C276.272 214.5 276.212 214.802 276.474 214.882C276.785 214.979 276.796 214.624 276.904 214.45C277.991 212.685 280.02 211.689 281.872 212.017C284.046 212.403 285.623 213.894 286.064 216.015C286.11 216.322 286.136 216.63 286.144 216.94C286.136 219.57 286.119 222.201 286.12 224.832C286.12 230.019 286.128 235.206 286.144 240.394C286.077 241.113 286.085 241.832 285.988 242.554C285.563 245.785 284.199 248.82 282.066 251.28C279.934 253.74 277.126 255.518 273.993 256.39C273.141 256.625 272.274 256.801 271.414 257.013L262.914 256.999Z" fill="#6B85DA"/>
<path d="M241.562 191.757C241.455 192.902 241.346 194.007 241.252 195.115C241.23 195.384 241.163 195.563 240.847 195.534C238.947 195.363 237.048 195.194 235.15 195.028C234.877 195.003 234.819 194.852 234.84 194.603C234.967 193.318 235.094 192.032 235.198 190.744C235.225 190.422 235.375 190.361 235.647 190.386C237.495 190.557 239.342 190.719 241.19 190.892C241.874 190.955 241.461 191.483 241.562 191.757Z" fill="#2D4898"/>
<path d="M262.308 192.071C262.299 191.891 262.278 191.712 262.242 191.535C262.112 191.053 262.311 190.904 262.776 190.866C264.484 190.729 266.208 190.575 267.919 190.399C268.443 190.345 268.639 190.479 268.665 191.034C268.721 192.167 268.858 193.294 268.962 194.424C268.993 194.751 269.012 195.015 268.538 195.046C266.796 195.182 265.056 195.331 263.32 195.529C262.725 195.597 262.572 195.393 262.544 194.844C262.495 193.92 262.377 192.997 262.289 192.074L262.308 192.071Z" fill="#2D4898"/>
<path d="M242.32 180.231C242.391 180.369 242.474 180.501 242.568 180.625C243.779 181.966 244.995 183.304 246.215 184.638C246.441 184.884 246.534 185.046 246.215 185.318C245.284 186.132 244.362 186.966 243.467 187.822C243.143 188.134 242.975 188.021 242.73 187.748C241.541 186.42 240.336 185.102 239.139 183.787C238.974 183.603 238.73 183.427 239.038 183.149C240.013 182.263 240.98 181.369 241.952 180.48C242.07 180.39 242.193 180.307 242.32 180.231Z" fill="#2D4898"/>
<path d="M261.605 180.295C261.725 180.388 261.83 180.461 261.925 180.547C262.838 181.38 263.738 182.226 264.667 183.037C264.987 183.319 264.935 183.504 264.667 183.779C263.443 185.103 262.233 186.439 261.035 187.788C260.75 188.112 260.57 188.053 260.3 187.788C259.421 186.958 258.529 186.14 257.624 185.334C257.373 185.108 257.284 184.954 257.561 184.657C258.825 183.3 260.064 181.921 261.313 180.55C261.405 180.469 261.503 180.39 261.605 180.295Z" fill="#2D4898"/>
<path d="M251.945 177.528C252.711 177.528 253.683 177.26 254.181 177.629C254.679 177.998 254.336 179.03 254.322 179.76C254.299 181.135 254.465 182.517 254.229 183.888C253.576 183.918 252.917 183.796 252.27 183.961L251.959 183.919C251.952 181.789 251.947 179.659 251.945 177.528Z" fill="#2D4898"/>
<path d="M251.946 177.528C251.946 179.658 251.946 181.788 251.946 183.919C249.631 184.104 249.631 184.104 249.631 181.807C249.631 180.594 249.661 179.38 249.619 178.167C249.598 177.607 249.794 177.448 250.319 177.494C250.844 177.539 251.406 177.518 251.946 177.528Z" fill="#2D4898"/>
<path d="M252.266 183.962C252.913 183.797 253.571 183.918 254.225 183.889C253.579 184.115 252.919 183.977 252.266 183.962Z" fill="#05FBFE"/>
<path d="M303.787 240.491C311.725 241.242 321.76 231.629 321.76 231.629C321.76 231.629 323.258 233.131 324.606 231.329C325.954 229.526 331.495 225.17 331.795 221.415C332.094 217.66 325.504 211.652 325.504 211.652C330.597 213.004 331.196 210 331.196 210C331.196 210 322.659 202.941 319.663 202.791C318.465 202.791 313.373 205.644 308.43 209.7C303.338 213.905 293.603 228.475 293.603 228.475C293.603 228.475 260.802 252.357 252.565 258.365C241.631 266.476 228.751 280.745 228.751 280.745C228.751 280.745 185.316 300.421 173.334 311.235L189.51 349.687C189.51 349.687 229.05 323.101 232.944 316.342C236.838 309.583 240.882 313.638 244.776 309.283C248.671 304.927 252.565 299.82 252.565 299.82C252.565 299.82 262.15 295.614 271.436 286.152C280.722 276.689 288.81 262.12 293.902 253.408C298.994 244.546 303.787 240.491 303.787 240.491Z" fill="white" stroke="#263238" stroke-miterlimit="10" stroke-linecap="round" stroke-linejoin="round"/>
<path d="M301.388 234.784C301.388 234.784 313.221 231.931 314.119 224.12C314.419 221.567 316.665 218.713 316.665 218.713C316.665 218.713 327.599 218.112 327 213.606L312.322 212.254C312.322 212.254 304.234 214.958 299.591 223.069" fill="white"/>
<path d="M301.388 234.784C301.388 234.784 313.221 231.931 314.119 224.12C314.419 221.567 316.665 218.713 316.665 218.713C316.665 218.713 327.599 218.112 327 213.606L312.322 212.254C312.322 212.254 304.234 214.958 299.591 223.069" stroke="#263238" stroke-miterlimit="10" stroke-linecap="round" stroke-linejoin="round"/>
<path d="M321.758 231.628C321.758 231.628 321.009 230.577 321.308 228.474C321.308 228.474 318.013 227.873 318.463 225.019C318.463 225.019 313.67 224.419 316.815 218.711" stroke="#263238" stroke-miterlimit="10" stroke-linecap="round" stroke-linejoin="round"/>
<path d="M318.467 225.021C318.467 225.021 324.907 220.215 325.656 218.112" stroke="#263238" stroke-miterlimit="10" stroke-linecap="round" stroke-linejoin="round"/>
<path d="M321.304 228.476C321.304 228.476 328.194 224.27 328.344 221.867" stroke="#263238" stroke-miterlimit="10" stroke-linecap="round" stroke-linejoin="round"/>
<path d="M319.815 206.847C319.815 206.847 322.062 210.752 325.656 211.654" stroke="#263238" stroke-miterlimit="10" stroke-linecap="round" stroke-linejoin="round"/>
<path d="M320.859 208.347C320.859 208.347 319.062 209.248 317.564 210.45" stroke="#263238" stroke-miterlimit="10" stroke-linecap="round" stroke-linejoin="round"/>
<path d="M69.8434 341.423C69.8434 341.423 95.7542 330.158 122.114 323.85C148.474 317.692 191.01 312.134 191.01 312.134C191.01 312.134 179.328 431.994 182.323 439.204C185.469 446.413 203.891 470.596 203.891 470.596C203.891 470.596 103.692 509.798 86.1687 513.103C68.6452 516.407 77.7814 455.726 77.7814 455.726C77.7814 455.726 59.509 378.523 69.8434 341.423Z" fill="#263238"/>
<path d="M105.791 328.509C105.791 328.509 103.395 333.015 109.685 335.419C125.861 341.427 143.235 336.17 141.288 329.711C140.539 327.308 136.645 329.711 136.794 320.699C136.794 319.497 137.244 318.146 137.843 316.644C138.891 314.391 140.389 311.987 142.037 309.734C144.732 305.829 147.578 302.825 147.578 302.825C147.578 302.825 121.817 286.303 102.796 302.825C102.796 302.825 109.835 306.43 105.791 328.509Z" fill="white" stroke="#263238" stroke-miterlimit="10" stroke-linecap="round" stroke-linejoin="round"/>
<path d="M73.8804 541.942C84.065 558.464 135.437 566.274 163.595 565.523C191.602 564.772 272.48 526.471 278.022 518.36C283.114 510.85 295.545 485.917 276.374 470.897C274.876 469.695 273.079 468.644 271.132 467.592C257.952 460.383 170.484 482.913 170.484 482.913C170.484 482.913 165.092 479.458 162.996 479.759C156.855 480.51 152.511 485.466 140.23 489.071C131.543 491.625 108.029 482.012 92.9016 490.273C91.2541 491.174 89.7564 492.225 88.2587 493.577C74.1799 507.095 63.6958 525.42 73.8804 541.942Z" fill="#7981EC"/>
<path opacity="0.3" d="M92.7555 490.271C108.182 489.22 121.961 492.525 131.547 498.232C142.93 504.991 196.698 530.976 196.698 530.976C196.548 528.122 193.553 522.565 193.553 522.565C198.645 518.059 211.825 514.454 211.825 514.454C222.16 505.742 262.748 479.457 276.078 471.046C274.58 469.844 272.783 468.793 270.836 467.741C257.656 460.532 170.188 483.062 170.188 483.062C170.188 483.062 164.796 479.607 162.7 479.908C156.559 480.659 152.216 485.615 139.934 489.22C131.397 491.623 107.883 482.01 92.7555 490.271Z" fill="black" fill-opacity="0.7"/>
<path d="M73.8804 541.942C84.065 558.464 135.437 566.274 163.595 565.523C191.602 564.772 272.48 526.471 278.022 518.36C283.114 510.85 295.545 485.917 276.374 470.897C274.876 469.695 273.079 468.644 271.132 467.592C257.952 460.383 170.484 482.913 170.484 482.913C170.484 482.913 165.092 479.458 162.996 479.759C156.855 480.51 152.511 485.466 140.23 489.071C131.543 491.625 108.029 482.012 92.9016 490.273C91.2541 491.174 89.7564 492.225 88.2587 493.577C74.18 507.095 63.6958 525.42 73.8804 541.942Z" stroke="#263238" stroke-miterlimit="10" stroke-linecap="round" stroke-linejoin="round"/>
<path d="M89.6137 556.966L88.2657 562.673C88.2657 562.673 91.7105 572.437 106.838 574.089C121.965 575.741 130.951 579.045 138.29 579.496C145.629 579.946 149.823 579.346 149.823 579.346L151.32 577.093L89.6137 556.966Z" fill="white" stroke="#263238" stroke-miterlimit="10" stroke-linecap="round" stroke-linejoin="round"/>
<path d="M177.531 556.364L151.321 576.941C151.321 576.941 130.952 575.289 113.728 571.233C101.297 568.38 90.5129 564.174 89.9138 558.466C89.0152 549.905 98.1514 547.502 109.085 547.802C111.182 547.802 113.278 547.952 115.375 548.253C132.899 550.205 155.065 540.442 155.065 540.442L177.531 556.364Z" fill="#263238"/>
<path opacity="0.3" d="M89.764 558.465C94.407 560.268 100.398 562.971 104.292 565.675C104.292 565.675 128.705 578.292 166.149 565.224L177.531 556.362L154.915 540.591C154.915 540.591 132.749 550.204 115.226 548.402C113.129 548.252 111.032 547.951 108.935 547.951C98.1513 547.651 89.0152 550.054 89.764 558.465Z" fill="black" fill-opacity="0.7"/>
<path d="M177.531 556.364L151.321 576.941C151.321 576.941 130.952 575.289 113.728 571.233C101.297 568.38 90.5129 564.174 89.9138 558.466C89.0152 549.905 98.1514 547.502 109.085 547.802C111.182 547.802 113.278 547.952 115.375 548.253C132.899 550.205 155.065 540.442 155.065 540.442L177.531 556.364Z" stroke="#263238" stroke-miterlimit="10" stroke-linecap="round" stroke-linejoin="round"/>
<path d="M153.115 564.476C157.908 565.227 152.666 574.99 146.226 571.986C139.785 569.132 148.322 563.725 153.115 564.476Z" fill="white"/>
<path opacity="0.2" d="M144.278 570.483C147.573 570.033 150.868 569.432 154.463 568.681C155.362 566.728 155.212 564.776 153.115 564.475C149.071 563.875 142.481 567.479 144.278 570.483Z" fill="black" fill-opacity="0.7"/>
<path d="M153.115 564.476C157.908 565.227 152.666 574.99 146.226 571.986C139.785 569.132 148.322 563.725 153.115 564.476Z" stroke="#263238" stroke-miterlimit="10" stroke-linecap="round" stroke-linejoin="round"/>
<path d="M113.731 571.384C101.3 568.531 90.5161 564.325 89.917 558.617C89.0184 550.056 98.1546 547.653 109.088 547.953C109.537 548.554 120.171 558.768 113.731 571.384Z" fill="white"/>
<path opacity="0.3" d="M89.7625 558.466C94.4055 560.268 100.396 562.972 104.291 565.676C104.291 565.676 107.885 567.478 114.475 569.13C118.669 557.565 109.233 548.403 108.784 548.102C98.1498 547.652 89.0137 550.055 89.7625 558.466Z" fill="black" fill-opacity="0.7"/>
<path d="M113.731 571.384C101.3 568.531 90.5161 564.325 89.917 558.617C89.0184 550.056 98.1546 547.653 109.088 547.953C109.537 548.554 120.171 558.768 113.731 571.384Z" stroke="#263238" stroke-miterlimit="10" stroke-linecap="round" stroke-linejoin="round"/>
<path d="M122.564 560.718C121.815 560.718 121.216 560.267 121.066 559.516C120.766 554.109 116.573 549.603 116.573 549.603C116.123 549.153 116.123 548.251 116.573 547.801C117.022 547.35 117.921 547.35 118.37 547.801C118.52 547.951 123.312 552.908 123.612 559.366C123.762 559.967 123.312 560.568 122.564 560.718Z" fill="white" stroke="#263238" stroke-miterlimit="10" stroke-linecap="round" stroke-linejoin="round"/>
<path d="M127.803 561.019C127.803 561.019 127.653 561.019 127.803 561.019C126.904 561.019 126.455 560.418 126.305 559.817C126.155 554.26 122.411 549.603 122.261 549.453C121.812 548.852 121.962 548.101 122.411 547.651C123.01 547.2 123.759 547.2 124.208 547.801C124.358 547.951 128.702 553.358 128.702 559.667C129.001 560.268 128.402 560.868 127.803 561.019Z" fill="white" stroke="#263238" stroke-miterlimit="10" stroke-linecap="round" stroke-linejoin="round"/>
<path d="M133.946 560.268C133.197 560.268 132.598 559.817 132.449 559.066C131.999 554.56 128.105 548.702 128.105 548.552C127.656 547.951 127.806 547.2 128.405 546.75C129.004 546.299 129.753 546.449 130.202 547.05C130.352 547.351 134.545 553.509 134.995 558.766C135.145 559.667 134.695 560.268 133.946 560.268Z" fill="white" stroke="#263238" stroke-miterlimit="10" stroke-linecap="round" stroke-linejoin="round"/>
<path d="M139.94 559.668C139.791 559.668 139.641 559.668 139.641 559.668C138.892 559.518 138.443 558.917 138.592 558.166C139.491 552.609 134.399 547.953 134.399 547.803C133.8 547.352 133.8 546.451 134.249 546C134.698 545.399 135.597 545.399 136.046 545.85C136.346 546.15 142.337 551.558 141.139 558.467C140.989 559.218 140.39 559.668 139.94 559.668Z" fill="white" stroke="#263238" stroke-miterlimit="10" stroke-linecap="round" stroke-linejoin="round"/>
<path d="M146.226 558.165C146.077 558.165 145.927 558.165 145.777 558.165C145.028 558.014 144.579 557.263 144.729 556.663C145.927 551.706 140.984 546.149 140.984 546.149C140.535 545.548 140.535 544.797 141.134 544.346C141.733 543.895 142.482 543.896 142.931 544.496C143.231 544.797 148.773 551.105 147.275 557.414C147.275 557.714 146.826 558.165 146.226 558.165Z" fill="white" stroke="#263238" stroke-miterlimit="10" stroke-linecap="round" stroke-linejoin="round"/>
<path d="M281.17 548.551L283.117 554.109C283.117 554.109 280.721 564.172 265.893 567.476C251.066 570.631 242.379 574.987 235.19 576.188C228.001 577.39 223.657 577.24 223.657 577.24L222.01 575.137L281.17 548.551Z" fill="white" stroke="#263238" stroke-miterlimit="10" stroke-linecap="round" stroke-linejoin="round"/>
<path d="M193.703 557.111L222.01 574.985C222.01 574.985 242.08 571.23 258.854 565.372C270.986 561.167 281.32 555.91 281.32 550.202C281.32 541.491 271.885 540.139 261.101 541.641C259.004 541.941 257.057 542.242 254.96 542.692C237.736 546.447 214.671 539.087 214.671 539.087L193.703 557.111Z" fill="#263238"/>
<path opacity="0.3" d="M193.707 557.111L210.332 567.625C226.957 562.519 237.891 551.854 244.031 543.744C229.353 543.744 214.526 539.087 214.526 539.087L193.707 557.111Z" fill="black" fill-opacity="0.7"/>
<path d="M193.703 557.111L222.01 574.985C222.01 574.985 242.08 571.23 258.854 565.372C270.986 561.167 281.32 555.91 281.32 550.202C281.32 541.491 271.885 540.139 261.101 541.641C259.004 541.941 257.057 542.242 254.96 542.692C237.736 546.447 214.671 539.087 214.671 539.087L193.703 557.111Z" stroke="#263238" stroke-miterlimit="10" stroke-linecap="round" stroke-linejoin="round"/>
<path d="M258.706 565.373C270.838 561.167 281.172 555.91 281.172 550.202C281.172 541.491 271.736 540.139 260.952 541.641C260.503 542.092 251.067 553.507 258.706 565.373Z" fill="white" stroke="#263238" stroke-miterlimit="10" stroke-linecap="round" stroke-linejoin="round"/>
<path d="M248.821 555.608C249.57 555.608 250.169 555.007 250.169 554.256C249.869 548.849 253.614 544.043 253.614 543.893C254.063 543.292 253.913 542.541 253.314 542.09C252.715 541.64 251.966 541.79 251.517 542.391C251.367 542.691 247.173 548.098 247.623 554.407C247.623 555.158 248.222 555.608 248.821 555.608Z" fill="white" stroke="#263238" stroke-miterlimit="10" stroke-linecap="round" stroke-linejoin="round"/>
<path d="M243.733 556.512C244.631 556.512 245.081 555.761 245.081 555.16C244.631 549.753 247.926 544.496 247.926 544.496C248.376 543.895 248.226 543.144 247.627 542.693C247.028 542.243 246.279 542.393 245.829 542.994C245.68 543.294 241.935 548.851 242.534 555.31C242.534 555.911 242.984 556.512 243.733 556.512Z" fill="white" stroke="#263238" stroke-miterlimit="10" stroke-linecap="round" stroke-linejoin="round"/>
<path d="M237.44 556.51C238.189 556.51 238.788 555.909 238.788 555.158C238.638 550.652 241.933 544.343 241.933 544.343C242.233 543.743 242.083 542.992 241.334 542.541C240.735 542.241 239.986 542.391 239.537 543.142C239.387 543.442 235.943 550.051 236.092 555.308C236.242 555.909 236.691 556.51 237.44 556.51Z" fill="white" stroke="#263238" stroke-miterlimit="10" stroke-linecap="round" stroke-linejoin="round"/>
<path d="M231.594 556.511C231.744 556.511 231.894 556.511 231.894 556.511C232.643 556.361 232.942 555.61 232.792 554.859C231.295 549.451 235.938 544.194 235.938 544.194C236.387 543.594 236.387 542.843 235.788 542.392C235.189 541.941 234.44 541.941 233.99 542.542C233.691 542.843 228.449 548.851 230.246 555.61C230.396 556.06 230.995 556.511 231.594 556.511Z" fill="white" stroke="#263238" stroke-miterlimit="10" stroke-linecap="round" stroke-linejoin="round"/>
<path d="M225.001 555.609C225.151 555.609 225.3 555.609 225.45 555.609C226.199 555.309 226.499 554.708 226.199 553.957C224.552 549.15 228.745 543.142 228.895 542.992C229.344 542.391 229.195 541.64 228.595 541.19C227.996 540.739 227.248 540.889 226.798 541.49C226.648 541.791 221.706 548.7 223.803 554.708C223.952 555.309 224.552 555.609 225.001 555.609Z" fill="white" stroke="#263238" stroke-miterlimit="10" stroke-linecap="round" stroke-linejoin="round"/>
<path d="M218.869 562.67C214.226 563.872 220.367 573.034 226.508 569.429C232.648 565.825 223.512 561.469 218.869 562.67Z" fill="white" stroke="#263238" stroke-miterlimit="10" stroke-linecap="round" stroke-linejoin="round"/>
<path d="M272.328 514.455C265.439 524.218 244.77 535.033 224.401 543.894C222.154 547.499 217.661 554.408 211.52 560.717C198.939 573.784 193.697 566.424 193.697 566.424C193.697 566.424 185.759 565.523 173.927 563.871C173.178 565.373 171.381 567.776 167.936 567.175C166.438 566.875 163.443 564.772 160.148 561.768C130.493 557.262 90.2036 549.752 79.2702 541.041" fill="#7981EC"/>
<path d="M272.328 514.455C265.439 524.218 244.77 535.033 224.401 543.894C222.154 547.499 217.661 554.408 211.52 560.717C198.939 573.784 193.697 566.424 193.697 566.424C193.697 566.424 185.759 565.523 173.927 563.871C173.178 565.373 171.381 567.776 167.936 567.175C166.438 566.875 163.443 564.772 160.148 561.768C130.493 557.262 90.2036 549.752 79.2702 541.041" stroke="#263238" stroke-miterlimit="10" stroke-linecap="round" stroke-linejoin="round"/>
<path d="M90.9616 495.831C96.0539 490.123 101.296 489.973 112.08 490.724C112.08 490.724 140.237 499.736 159.857 511.602C179.478 523.468 208.084 536.084 208.084 536.084C208.084 536.084 216.771 533.531 222.912 536.084C222.912 536.084 227.106 536.385 224.26 543.895" stroke="#263238" stroke-miterlimit="10" stroke-linecap="round" stroke-linejoin="round"/>
<path d="M77.9308 529.776C77.9308 529.776 77.7811 538.488 90.0625 544.496" stroke="#263238" stroke-miterlimit="10" stroke-linecap="round" stroke-linejoin="round"/>
<path d="M214.078 493.276C214.078 493.276 194.608 507.395 190.713 516.708C190.713 516.708 183.225 519.862 179.63 522.415" stroke="#263238" stroke-miterlimit="10" stroke-linecap="round" stroke-linejoin="round"/>
<path d="M189.219 504.991C187.871 509.047 187.421 513.402 188.47 517.608" stroke="#263238" stroke-miterlimit="10" stroke-linecap="round" stroke-linejoin="round"/>
<path d="M193.703 495.829C192.655 497.331 191.756 498.983 190.857 500.786" stroke="#263238" stroke-miterlimit="10" stroke-linecap="round" stroke-linejoin="round"/>
<path d="M166 494.627C166 494.627 159.41 503.339 157.912 510.398" stroke="#263238" stroke-miterlimit="10" stroke-linecap="round" stroke-linejoin="round"/>
<path d="M129.75 547.35C127.354 547.2 124.957 546.899 122.561 546.449" stroke="#263238" stroke-miterlimit="10" stroke-linecap="round" stroke-linejoin="round"/>
<path d="M190.859 541.19C173.036 544.645 153.566 547.198 134.844 547.649" stroke="#263238" stroke-miterlimit="10" stroke-linecap="round" stroke-linejoin="round"/>
<path d="M59.0599 408.715C59.0599 408.715 62.5047 470.147 66.6983 473.752C70.892 477.357 77.3323 478.408 89.7635 479.46C102.195 480.511 156.862 483.816 156.862 483.816L162.703 466.092C162.703 466.092 133.647 463.088 120.617 458.282C107.736 453.475 90.8119 450.321 90.8119 450.321C90.8119 450.321 93.2083 434.85 93.2083 428.241C93.2083 421.633 93.2083 404.66 93.2083 396.85" fill="white"/>
<path d="M59.0599 408.715C59.0599 408.715 62.5047 470.147 66.6983 473.752C70.892 477.357 77.3323 478.408 89.7635 479.46C102.195 480.511 156.862 483.816 156.862 483.816L162.703 466.092C162.703 466.092 133.647 463.088 120.617 458.282C107.736 453.475 90.8119 450.321 90.8119 450.321C90.8119 450.321 93.2083 434.85 93.2083 428.241C93.2083 421.633 93.2083 404.66 93.2083 396.85" stroke="#263238" stroke-miterlimit="10" stroke-linecap="round" stroke-linejoin="round"/>
<path d="M69.8394 341.426C56.5095 349.687 52.6154 368.762 57.1086 409.467C57.1086 409.467 53.2146 414.273 59.0557 416.676C59.0557 416.676 80.9226 408.565 90.9574 414.123C101.142 419.83 98.4461 406.312 98.4461 406.312C98.4461 406.312 102.64 368.912 93.3538 362.153" fill="#263238"/>
<path d="M94.7028 356.293C94.7028 356.293 107.583 369.661 96.2005 403.456C96.2005 403.456 97.6983 409.614 97.6983 411.867C97.6983 414.12 94.553 415.322 94.553 415.322" stroke="white" stroke-miterlimit="10" stroke-linecap="round" stroke-linejoin="round"/>
<path d="M109.68 378.976C109.68 378.976 108.781 395.498 98.5965 402.707" stroke="white" stroke-miterlimit="10" stroke-linecap="round" stroke-linejoin="round"/>
<path d="M106.382 340.675C106.382 340.675 126.302 348.335 142.178 339.924C151.614 334.967 147.719 326.856 147.719 326.856" stroke="white" stroke-miterlimit="10" stroke-linecap="round" stroke-linejoin="round"/>
<path d="M249.419 495.833H141.132C138.736 495.833 136.19 495.533 133.943 494.932L112.526 489.374C111.926 489.224 111.477 488.623 111.477 488.023C111.477 487.272 112.076 486.671 112.825 486.671H253.912C254.661 486.671 255.26 487.272 255.26 488.023V489.975C255.409 493.28 252.714 495.833 249.419 495.833Z" fill="#757575" stroke="#263238" stroke-miterlimit="10" stroke-linecap="round" stroke-linejoin="round"/>
<path d="M260.201 490.575H151.615C149.668 490.575 148.62 489.073 149.069 487.121L169.289 408.566C169.738 406.613 171.685 405.111 173.632 405.111H282.218C284.165 405.111 285.213 406.613 284.764 408.566L264.545 487.121C264.095 488.923 262.148 490.575 260.201 490.575Z" fill="#999999" stroke="#263238" stroke-miterlimit="10" stroke-linecap="round" stroke-linejoin="round"/>
<path d="M278.325 407.664H280.422" stroke="#263238" stroke-miterlimit="10" stroke-linecap="round" stroke-linejoin="round"/>
<path d="M262.444 407.664H273.078" stroke="#263238" stroke-miterlimit="10" stroke-linecap="round" stroke-linejoin="round"/>
<path d="M154.157 480.511L171.98 411.119C172.429 409.166 174.376 407.664 176.324 407.664H260.047" stroke="#263238" stroke-miterlimit="10" stroke-linecap="round" stroke-linejoin="round"/>
<path d="M152.66 486.668L153.109 484.866" stroke="#263238" stroke-miterlimit="10" stroke-linecap="round" stroke-linejoin="round"/>
<path d="M227.547 449.722C227.547 450.322 227.397 450.923 227.098 451.674C225.75 456.481 221.256 459.334 217.212 458.133C213.169 456.931 210.922 452.125 212.42 447.318C213.768 442.512 218.261 439.658 222.305 440.86C222.754 441.01 223.203 441.16 223.653 441.461C223.353 444.915 224.851 448.22 227.547 449.722Z" fill="white" stroke="#263238" stroke-miterlimit="10" stroke-linecap="round" stroke-linejoin="round"/>
<path d="M179.625 302.372C189.061 301.321 194.153 292.309 199.844 290.957C205.536 289.605 209.13 287.953 209.13 287.953C209.13 287.953 211.077 281.194 213.923 283.447C216.769 285.85 220.663 336.768 216.918 335.116C213.174 333.464 213.174 339.472 213.174 339.472L178.277 370.263L149.071 318.294C148.921 318.594 170.189 303.424 179.625 302.372Z" fill="#263238"/>
<path d="M173.332 316.191C173.332 316.191 182.169 333.013 183.367 358.698" stroke="white" stroke-miterlimit="10" stroke-linecap="round" stroke-linejoin="round"/>
<path d="M199.695 327.757C199.695 327.757 196.999 342.026 189.211 352.39" stroke="white" stroke-miterlimit="10" stroke-linecap="round" stroke-linejoin="round"/>
<path d="M162.844 386.634C162.844 386.634 149.364 431.094 120.009 444.161" stroke="white" stroke-miterlimit="10" stroke-linecap="round" stroke-linejoin="round"/>
<path d="M127.353 306.277C127.353 306.277 128.701 316.04 137.838 316.641C138.886 314.388 140.384 311.984 142.031 309.731C135.891 307.779 127.353 306.277 127.353 306.277Z" fill="#263238"/>
<path d="M107.585 307.029C107.585 307.029 92.0084 308.981 85.5681 287.953C79.1279 267.076 84.2202 251.304 109.831 243.644C124.06 239.439 138.288 242.893 143.53 253.708C147.874 263.02 145.927 270.68 146.825 273.835C148.024 277.289 158.508 280.293 158.508 282.696C158.508 284.649 152.667 288.104 152.667 288.104L154.314 293.361L152.667 294.262C152.667 294.262 155.662 305.977 154.314 310.033C153.266 313.037 127.055 314.238 124.959 306.879" fill="white"/>
<path d="M107.585 307.029C107.585 307.029 92.0084 308.981 85.5681 287.953C79.1279 267.076 84.2202 251.304 109.831 243.644C124.06 239.439 138.288 242.893 143.53 253.708C147.874 263.02 145.927 270.68 146.825 273.835C148.024 277.289 158.508 280.293 158.508 282.696C158.508 284.649 152.667 288.104 152.667 288.104L154.314 293.361L152.667 294.262C152.667 294.262 155.662 305.977 154.314 310.033C153.266 313.037 127.055 314.238 124.959 306.879" stroke="#263238" stroke-miterlimit="10" stroke-linecap="round" stroke-linejoin="round"/>
<path d="M143.375 261.37C143.375 261.37 138.283 262.722 136.785 265.426" stroke="#263238" stroke-miterlimit="10" stroke-linecap="round" stroke-linejoin="round"/>
<path d="M142.477 273.236C142.627 274.738 142.328 276.089 141.729 276.089C141.129 276.24 140.381 275.038 140.081 273.536C139.931 272.034 140.231 270.682 140.83 270.682C141.579 270.532 142.178 271.734 142.477 273.236Z" fill="#263238"/>
<path d="M152.812 293.962C152.812 293.962 144.425 297.117 141.28 295.164" stroke="#263238" stroke-miterlimit="10" stroke-linecap="round" stroke-linejoin="round"/>
<path d="M149.824 272.035C150.424 275.34 149.675 278.344 148.177 278.644C146.679 278.945 144.882 276.391 144.283 273.087C143.684 269.782 144.433 266.778 145.93 266.478C147.428 266.178 149.225 268.581 149.824 272.035Z" stroke="#263238" stroke-miterlimit="10" stroke-linecap="round" stroke-linejoin="round"/>
<path d="M84.8182 254.911C84.8182 254.911 86.0164 246.2 94.5534 239.741C103.091 233.433 113.425 232.081 113.425 232.081C113.425 232.081 108.482 234.183 106.535 237.187C106.535 237.187 119.416 227.575 134.543 233.883C149.82 240.192 147.873 256.714 147.873 256.714L145.626 252.358C145.626 252.358 145.926 257.465 143.23 259.417C143.23 259.417 141.582 254.461 139.935 252.208C139.935 252.208 135.891 264.374 124.808 268.579C124.808 268.579 126.006 266.176 124.957 262.571C124.957 262.571 118.817 275.939 120.614 282.548L118.667 286.003C118.667 286.003 111.628 278.793 105.786 284.801C102.491 288.256 112.077 301.323 113.425 301.323L107.584 309.885C107.584 309.885 93.0557 311.987 84.6684 296.216C76.2811 280.445 78.3779 273.686 78.3779 273.686C78.3779 273.686 75.682 277.591 75.2327 279.694C75.3824 279.394 72.9861 262.421 84.8182 254.911Z" fill="#263238"/>
<path d="M119.117 287.353C119.117 287.353 114.624 272.183 105.038 277.59C95.453 282.997 102.343 290.958 105.787 294.112C109.232 297.267 111.778 302.824 114.025 302.824C116.272 302.824 116.721 300.12 116.721 300.12" fill="white"/>
<path d="M119.117 287.353C119.117 287.353 114.624 272.183 105.038 277.59C95.453 282.997 102.343 290.958 105.787 294.112C109.232 297.267 111.778 302.824 114.025 302.824C116.272 302.824 116.721 300.12 116.721 300.12" stroke="#263238" stroke-miterlimit="10" stroke-linecap="round" stroke-linejoin="round"/>
<path d="M144.281 273.085L117.622 278.643" stroke="#263238" stroke-miterlimit="10" stroke-linecap="round" stroke-linejoin="round"/>
<defs>
<filter id="filter0_d_1355_6519" x="0.504326" y="0.193806" width="837.991" height="507.111" filterUnits="userSpaceOnUse" color-interpolation-filters="sRGB">
<feFlood flood-opacity="0" result="BackgroundImageFix"/>
<feColorMatrix in="SourceAlpha" type="matrix" values="0 0 0 0 0 0 0 0 0 0 0 0 0 0 0 0 0 0 127 0" result="hardAlpha"/>
<feOffset dy="34.2222"/>
<feGaussianBlur stdDeviation="32.2478"/>
<feColorMatrix type="matrix" values="0 0 0 0 0.573663 0 0 0 0 0.647248 0 0 0 0 0.720833 0 0 0 0.14 0"/>
<feBlend mode="normal" in2="BackgroundImageFix" result="effect1_dropShadow_1355_6519"/>
<feBlend mode="normal" in="SourceGraphic" in2="effect1_dropShadow_1355_6519" result="shape"/>
</filter>
<filter id="filter1_d_1355_6519" x="428.547" y="131.85" width="325" height="202" filterUnits="userSpaceOnUse" color-interpolation-filters="sRGB">
<feFlood flood-opacity="0" result="BackgroundImageFix"/>
<feColorMatrix in="SourceAlpha" type="matrix" values="0 0 0 0 0 0 0 0 0 0 0 0 0 0 0 0 0 0 127 0" result="hardAlpha"/>
<feOffset dy="4"/>
<feGaussianBlur stdDeviation="7"/>
<feComposite in2="hardAlpha" operator="out"/>
<feColorMatrix type="matrix" values="0 0 0 0 0 0 0 0 0 0 0 0 0 0 0 0 0 0 0.25 0"/>
<feBlend mode="normal" in2="BackgroundImageFix" result="effect1_dropShadow_1355_6519"/>
<feBlend mode="normal" in="SourceGraphic" in2="effect1_dropShadow_1355_6519" result="shape"/>
</filter>
<filter id="filter2_d_1355_6519" x="99.4062" y="121.35" width="323.484" height="220.596" filterUnits="userSpaceOnUse" color-interpolation-filters="sRGB">
<feFlood flood-opacity="0" result="BackgroundImageFix"/>
<feColorMatrix in="SourceAlpha" type="matrix" values="0 0 0 0 0 0 0 0 0 0 0 0 0 0 0 0 0 0 127 0" result="hardAlpha"/>
<feOffset dy="4"/>
<feGaussianBlur stdDeviation="7"/>
<feComposite in2="hardAlpha" operator="out"/>
<feColorMatrix type="matrix" values="0 0 0 0 0 0 0 0 0 0 0 0 0 0 0 0 0 0 0.15 0"/>
<feBlend mode="normal" in2="BackgroundImageFix" result="effect1_dropShadow_1355_6519"/>
<feBlend mode="normal" in="SourceGraphic" in2="effect1_dropShadow_1355_6519" result="shape"/>
</filter>
</defs>
</svg>
