<svg width="21" height="18" viewBox="0 0 21 18" fill="none" xmlns="http://www.w3.org/2000/svg">
<path d="M20.0622 0.464925L19.557 4.09649C18.5464 4.01154 17.7254 4.18144 17.0938 4.60618C16.4622 5.00969 16.0201 5.60433 15.7675 6.39011C15.5359 7.15465 15.4938 8.04662 15.6411 9.066H20.0622V17.7308H11.4727V9.066C11.4727 6.00784 12.1779 3.69299 13.5885 2.12143C14.999 0.528637 17.1569 -0.0235311 20.0622 0.464925ZM8.63055 0.464925L8.12529 4.09649C7.11475 4.01154 6.29369 4.18144 5.66211 4.60618C5.03053 5.00969 4.58842 5.60433 4.33578 6.39011C4.1042 7.15465 4.0621 8.04662 4.20947 9.066H8.63055V17.7308H0.0410156V9.066C0.0410156 6.00784 0.746284 3.69299 2.15682 2.12143C3.56736 0.528637 5.72527 -0.0235311 8.63055 0.464925Z" fill="#0F6A91"/>
</svg>
